<svg id="Layer_1" data-name="Layer 1" xmlns="http://www.w3.org/2000/svg" viewBox="0 0 68.93 249.93"><defs><style>.cls-1{fill:#013d54;}.cls-2{fill:#4e2520;}.cls-3{fill:#e1ae8f;}.cls-4{fill:#462414;}.cls-5{fill:#f0f1f2;}.cls-6{fill:none;stroke:#4e2520;stroke-linecap:round;stroke-miterlimit:10;stroke-width:2px;}</style></defs><title>boy_icon</title><path class="cls-1" d="M8.63,100.34V86.4c.32-.06.24-.32.25-.52,0-.69.07-1.38.11-2.07.17-2.92.61-5.8,1.06-8.68a10.36,10.36,0,0,1,7-8.64c3.2-1.24,6.55-2,9.84-2.89,1.73-.48,3.45-1,5.22-1.33A9.48,9.48,0,0,0,35.6,67c2,1.45,4.14,2.61,6.21,3.91a3.39,3.39,0,0,0,3.84,0c1.92-1.14,3.89-2.2,5.73-3.46a9.33,9.33,0,0,0,3.91-4.95c3.77,1,7.53,2,11.31,3,4.68,1.18,7.89,4,9.24,8.68a25,25,0,0,1,.81,4.86c.18,2.11.39,4.22.49,6.34.09,1.93.23,3.86.18,5.79,0,.23-.14.55.24.65v6.38c-.31.06-.23.32-.24.52,0,.43,0,.87,0,1.3h-11C66,96.51,65.4,93,65,89.43a1.15,1.15,0,0,0-.17.49c-.22,2.28-.45,4.56-.65,6.85-.24,2.69-.46,5.39-.65,8.08s-.37,5.62-.53,8.43-.29,5.58-.38,8.38-.1,5.33-.15,8c0,.71,0,1.43,0,2.15l-11.06-.05-27.72,0c0-3.57-.11-7.15-.27-10.72-.07-1.62-.06-3.25-.16-4.87s-.17-3.16-.26-4.73c-.14-2.42-.33-4.84-.5-7.25-.09-1.23-.18-2.46-.29-3.69q-.3-3.39-.62-6.78c-.13-1.38-.27-2.76-.42-4.25a5.93,5.93,0,0,0-.29,1.77c-.26,2-.49,4.08-.71,6.12-.12,1.07,0,2.23-1.07,2.93l-.71,0Z" transform="translate(-8.63 -2.35)"/><path class="cls-2" d="M63,2.35a23.2,23.2,0,0,1,1.27,3,8.4,8.4,0,0,1-.12,5.85,8.75,8.75,0,0,0-.37,5.64,24.47,24.47,0,0,1,.52,5.27,56.79,56.79,0,0,1-.14,6c-.17,1.74-.42,3.47-.63,5.2-1.84.13-2.24.48-2.64,2.31-.13.57-.26,1.13-.41,1.69-.09.38-.29.35-.54.12s-.21-.64-.18-1a28.47,28.47,0,0,0,0-5.91,3.35,3.35,0,0,0-.4-1.8,8.33,8.33,0,0,1-1.66-5.53,23.2,23.2,0,0,0-.26-3.43,4.16,4.16,0,0,0-4-3.92,48.68,48.68,0,0,0-5.52-.34c-4.66-.11-9.33-.28-14-.14a4.74,4.74,0,0,0-4.75,3.53,14.61,14.61,0,0,0-.39,4.37,7.87,7.87,0,0,1-1.05,4.22,7,7,0,0,0-1,3.9c0,1.95.08,3.9.12,5.86a5.92,5.92,0,0,1-.36,1.92,11.61,11.61,0,0,1-.55-2.65c-.22-1.68-.72-3.14-2.61-3.6-.12-1.53-.31-3.06-.35-4.59-.05-2.31-.25-4.62-.09-6.95a39.55,39.55,0,0,1,1-6.79,14,14,0,0,1,3.35-6.45,13.32,13.32,0,0,1,6.72-3.6A49.68,49.68,0,0,1,42.37,3a29,29,0,0,1,9.15.64A19.42,19.42,0,0,1,54.76,4.8c1.82.82,3.69,1.1,5.45-.12a6.66,6.66,0,0,0,2.11-2.33Z" transform="translate(-8.63 -2.35)"/><path class="cls-3" d="M19,100.27c.48,0,.63.11.57.65-.37,3.45-.67,6.9-1,10.35-.42,3.88-.88,7.75-1.35,11.63s-.88,8-1.11,12a58.82,58.82,0,0,0-.05,10.28c.25,2,.59,4,.83,6a16.14,16.14,0,0,1-.12,5.05,7.27,7.27,0,0,0-.07,1c0,.38-.17.71-.59.73a.64.64,0,0,1-.7-.63c-.19-1.16-.36-2.31-.53-3.47a1,1,0,0,0-.2-.63c-.74,2.93-1.15,5.83.17,8.7.19.41.29.85-.21,1.15a.72.72,0,0,1-1-.24,14.85,14.85,0,0,1-3.79-7,13.71,13.71,0,0,1,.22-5.74,13.15,13.15,0,0,0,.35-3.48q-.3-7.84-.61-15.68c-.14-3.71-.27-7.42-.43-11.13s-.37-7.15-.55-10.72a1.64,1.64,0,0,0,0-.32c0-.11-.1-.12-.18,0v-8.47l9.7,0Z" transform="translate(-8.63 -2.35)"/><path class="cls-4" d="M34.56,244.58c0,1.69,0,3.38,0,5.07A2.27,2.27,0,0,1,33.11,252c-.14.05-.23.12-.24.27H13.45c0-.23-.21-.22-.37-.28a1.38,1.38,0,0,1-.58-2.34,7.59,7.59,0,0,1,4.11-2.07c1.25-.27,2.49-.58,3.74-.84a4.17,4.17,0,0,0,2.76-2.18Z" transform="translate(-8.63 -2.35)"/><path class="cls-4" d="M53.46,252.28c0-.14-.11-.21-.25-.26a2.12,2.12,0,0,1-1.7-2.38c0-1.69,0-3.37,0-5.06H63a3,3,0,0,0,2.16,2,39.94,39.94,0,0,0,5.15,1.28,5.55,5.55,0,0,1,3.19,1.86c.92,1.06.63,2-.74,2.32-.17.05-.35,0-.38.27Z" transform="translate(-8.63 -2.35)"/><path class="cls-5" d="M63,244.59H51.51c-.31-4.7-.35-9.41-.52-14.12-.23-6.05-.42-12.1-.61-18.16-.11-3.47-.26-6.94-.3-10.41a73.56,73.56,0,0,0-.87-9.84C48.78,189,48.4,186,48,183c-.45-3.35-.92-6.7-1.38-10l-1.35-9.79c-.35-2.55-.69-5.11-1-7.66-.09-.65-.55-.81-1.12-.82-.75,0-1.11.22-1.21.88-.24,1.56-.45,3.13-.66,4.7l-1.38,10c-.41,3-.81,5.93-1.23,8.89s-.83,5.74-1.23,8.61-.76,5.63-1,8.46c-.65,7.71-.69,15.44-.93,23.16q-.36,11.88-.77,23.76c0,.5-.08,1-.12,1.49H23.11q-.32-12-.62-24c-.29-11.46-.5-22.92-.27-34.39.21-10.43.57-20.87.84-31.31.16-6.16.29-12.32.43-18.49,0-1.54.09-3.08.14-4.62l27.72,0,11.06.05c.26,3.33.21,6.67.29,10q.27,11,.47,22c.26,12.38.82,24.75.65,37.13-.14,11.11-.44,22.23-.68,33.34C63.06,237.73,63,241.16,63,244.59Z" transform="translate(-8.63 -2.35)"/><path class="cls-3" d="M23.22,33c1.89.46,2.39,1.92,2.61,3.6a11.61,11.61,0,0,0,.55,2.65,5.92,5.92,0,0,0,.36-1.92c0-2-.11-3.91-.12-5.86a7,7,0,0,1,1-3.9,7.87,7.87,0,0,0,1.05-4.22,14.61,14.61,0,0,1,.39-4.37,4.74,4.74,0,0,1,4.75-3.53c4.66-.14,9.33,0,14,.14a48.68,48.68,0,0,1,5.52.34,4.16,4.16,0,0,1,4,3.92,23.2,23.2,0,0,1,.26,3.43,8.33,8.33,0,0,0,1.66,5.53,3.35,3.35,0,0,1,.4,1.8,28.47,28.47,0,0,1,0,5.91c0,.34-.12.69.18,1s.45.26.54-.12c.15-.56.28-1.12.41-1.69.4-1.83.8-2.18,2.64-2.31A5.72,5.72,0,0,1,63,41.46a1.44,1.44,0,0,1-2,.16c-.91-.53-1.21-.42-1.59.58a24.41,24.41,0,0,1-6.1,9.53,20.77,20.77,0,0,1-2.12,1.73,1.94,1.94,0,0,0-.89,1.77c0,1,0,2,0,2.92A3.09,3.09,0,0,0,52,61c1.07.63,2.23,1,3.34,1.58a9.33,9.33,0,0,1-3.91,4.95c-1.84,1.26-3.81,2.32-5.73,3.46a3.39,3.39,0,0,1-3.84,0c-2.07-1.3-4.23-2.46-6.21-3.91a9.48,9.48,0,0,1-3.54-4.77c.13-.18.35-.15.53-.2a3.93,3.93,0,0,0,3.12-3.77,9.31,9.31,0,0,0-.3-3.15,3,3,0,0,0-1.21-1.8A22,22,0,0,1,26,42.65c-.38-1-.54-1.06-1.56-.94A2,2,0,0,1,22.6,41a6.46,6.46,0,0,1-1.15-6.34A2.59,2.59,0,0,1,23.22,33Zm22.13,14.2c.1,0,.16,0,.14-.13s.12-.05.13-.13l.31-.07a.34.34,0,0,0,0-.11s.13-.08,0-.12a2.23,2.23,0,0,0,0,.23.26.26,0,0,0-.31.08,1.59,1.59,0,0,1-.13.13l-.13.13s-.14,0,0,.1Zm.92-.91c.06,0,.13,0,.09-.07l-.08.08s-.13,0,0,.09Zm-5.34,1.6,0-.1-.06,0,.09,0a.61.61,0,0,0,.52.21A.67.67,0,0,0,40.93,47.84ZM54.22,28h0a2.64,2.64,0,0,0-3.92-.35A7.58,7.58,0,0,1,54.22,28Zm-.37,5.28c-.07-.37-.11-.82-.23-1.25a1.74,1.74,0,0,0-1.75-1.45A1.81,1.81,0,0,0,50.07,32a4.09,4.09,0,0,0,.13,3,1.59,1.59,0,0,0,1.52,1.11A1.78,1.78,0,0,0,53.5,35,5.71,5.71,0,0,0,53.85,33.32ZM34.26,36.1A1.54,1.54,0,0,0,35.85,35a4.06,4.06,0,0,0,0-3.19,1.64,1.64,0,0,0-1.59-1.2,1.71,1.71,0,0,0-1.72,1.13,4.39,4.39,0,0,0-.06,3.15A1.75,1.75,0,0,0,34.26,36.1Zm1.5-8.47a2.81,2.81,0,0,0-4.32.82A6.63,6.63,0,0,1,35.76,27.63Zm5.76,20.43A2.57,2.57,0,0,0,44,48,4.31,4.31,0,0,1,41.52,48.06Zm-.89-.47-.05,0s0,0,0,0,0,0,.05,0Z" transform="translate(-8.63 -2.35)"/><path class="cls-3" d="M77.29,100.07c.09,3.06,0,6.12-.18,9.18-.19,3.77-.41,7.54-.58,11.31-.23,5-.41,10-.61,15q-.23,5.66-.41,11.32a24.14,24.14,0,0,0,.65,4.62A12.32,12.32,0,0,1,73.65,161c-.39.52-.8,1-1.22,1.52-.27.32-.56.67-1,.41s-.46-.75-.27-1.19a10.34,10.34,0,0,0,.84-4.69,20,20,0,0,0-.73-4.26c-.21,1.4-.39,2.62-.57,3.83a3.23,3.23,0,0,1-.15.7.6.6,0,0,1-1.19-.12A29.05,29.05,0,0,1,69,152c.13-1.76.4-3.49.69-5.22a32.56,32.56,0,0,0,.45-6.54c-.15-4.54-.42-9.06-.9-13.57-.47-4.33-1-8.65-1.51-13-.39-3.54-.72-7.08-1.08-10.61-.11-1-.24-2-.35-3Z" transform="translate(-8.63 -2.35)"/><path class="cls-4" d="M53.85,33.32A5.71,5.71,0,0,1,53.5,35a1.78,1.78,0,0,1-1.78,1.06A1.59,1.59,0,0,1,50.2,35a4.09,4.09,0,0,1-.13-3,1.81,1.81,0,0,1,1.8-1.41,1.74,1.74,0,0,1,1.75,1.45C53.74,32.5,53.78,33,53.85,33.32Z" transform="translate(-8.63 -2.35)"/><path class="cls-4" d="M34.26,36.1a1.75,1.75,0,0,1-1.75-1.2,4.39,4.39,0,0,1,.06-3.15,1.71,1.71,0,0,1,1.72-1.13,1.64,1.64,0,0,1,1.59,1.2,4.06,4.06,0,0,1,0,3.19A1.54,1.54,0,0,1,34.26,36.1Z" transform="translate(-8.63 -2.35)"/><path class="cls-4" d="M35.76,27.63a6.63,6.63,0,0,0-4.32.82A2.81,2.81,0,0,1,35.76,27.63Z" transform="translate(-8.63 -2.35)"/><path class="cls-2" d="M54.22,28a7.58,7.58,0,0,0-3.93-.36,2.64,2.64,0,0,1,3.92.35Z" transform="translate(-8.63 -2.35)"/><path class="cls-2" d="M41.52,48.06A4.31,4.31,0,0,0,44,48,2.57,2.57,0,0,1,41.52,48.06Z" transform="translate(-8.63 -2.35)"/><path class="cls-2" d="M40.93,47.84a.67.67,0,0,1,.53.2.61.61,0,0,1-.52-.21Z" transform="translate(-8.63 -2.35)"/><path class="cls-2" d="M45.94,46.82l0-.23c.13,0,0,.08,0,.12a.24.24,0,0,1,0,.1Z" transform="translate(-8.63 -2.35)"/><path class="cls-2" d="M45.63,46.9a.26.26,0,0,1,.31-.08h0l-.31.08Z" transform="translate(-8.63 -2.35)"/><polygon class="cls-2" points="45.58 25.68 45.62 25.68 45.59 25.69 45.58 25.68"/><path class="cls-2" d="M46.28,46.25l.08-.08c0,.12,0,.08-.09.07Z" transform="translate(-8.63 -2.35)"/><path class="cls-2" d="M46.27,46.24v.1c-.11-.05,0-.06,0-.09Z" transform="translate(-8.63 -2.35)"/><path class="cls-2" d="M45.62,46.89c0,.08,0,.14-.13.13h0a1.59,1.59,0,0,0,.13-.13Z" transform="translate(-8.63 -2.35)"/><path class="cls-2" d="M45.37,47.16,45.5,47h0c0,.12,0,.14-.14.13Z" transform="translate(-8.63 -2.35)"/><path class="cls-2" d="M45.35,47.15v.11c-.12-.06,0-.07,0-.1Z" transform="translate(-8.63 -2.35)"/><path class="cls-2" d="M40.63,47.59l0,0s0,0-.05,0,0,0,0,0Z" transform="translate(-8.63 -2.35)"/><path class="cls-2" d="M40.94,47.83l-.09,0,.06,0,0,.1Z" transform="translate(-8.63 -2.35)"/><path class="cls-6" d="M39.13,45.8s2.81,5.46,7.61,0" transform="translate(-8.63 -2.35)"/></svg>