<svg id="Layer_1" data-name="Layer 1" xmlns="http://www.w3.org/2000/svg" viewBox="0 0 200 200"><defs><style>.cls-1{fill:#be0411;}.cls-2{fill:#fff;}</style></defs><title>brands</title><path class="cls-1" d="M29.07,114.61c-6.44-.1-12.36-1.34-17.54-5-3.33-2.36-5.79-5.37-6-9.64-.25-4.59,2.14-7.89,5.62-10.52a26.69,26.69,0,0,1,13.42-5,32.27,32.27,0,0,1,19.14,3.22,16.09,16.09,0,0,1,7.44,7.21c2.3,4.82.78,10.13-4,14-4.37,3.54-9.52,5.08-15,5.64C31.05,114.55,30,114.57,29.07,114.61Z"/><path class="cls-1" d="M90.57,87.71c6.89.26,11.69,5.54,11.41,12.56A11.64,11.64,0,1,1,90.57,87.71Z"/><path class="cls-1" d="M136.66,87.77c6.71.51,11.53,5.89,11.07,12.34s-6,11.35-12.14,10.9a11.63,11.63,0,1,1,1.07-23.24Z"/><path class="cls-1" d="M187.21,110.48c-2.8,0-2.8,0-3.78-2.61-.88-2.33-.88-2.33-3.43-2.33-1.82,0-3.65,0-5.48,0a1.08,1.08,0,0,0-1.2.83c-.38,1.07-.82,2.12-1.18,3.2-.21.64-.51,1-1.26.94-1.32-.06-2.64,0-4,0-.66,0-.92-.1-.61-.85q4.24-10.23,8.44-20.46a.94.94,0,0,1,1-.67c1.55,0,3.11,0,4.66,0,.63,0,.87.29,1.08.8,2.76,6.74,5.52,13.48,8.33,20.2.38.92,0,1-.71,1S187.85,110.48,187.21,110.48Z"/><path class="cls-1" d="M102.39,88.51c1.68,0,3.36,0,5,0,.73,0,.86.58,1.12,1,1.54,2.64,3.06,5.28,4.7,8.12,1.62-2.8,3.16-5.4,4.62-8.05a1.82,1.82,0,0,1,1.93-1.11c1.4.08,2.82,0,4.33,0a2.78,2.78,0,0,1-.64,1.37c-2.4,3.83-4.79,7.66-7.22,11.47a3.56,3.56,0,0,0-.57,2.05c0,2,0,3.93,0,5.9,0,1-.31,1.27-1.24,1.19a17.9,17.9,0,0,0-2.74,0c-.9.08-1.07-.29-1-1.1.06-1.73,0-3.48,0-5.21a6.08,6.08,0,0,0-1.11-3.82c-2.3-3.51-4.5-7.09-6.73-10.65A1.88,1.88,0,0,1,102.39,88.51Z"/><path class="cls-1" d="M158.5,88.51c2.69,0,5.39,0,8.08,0,.83,0,1.2.14,1.2,1.12,0,3,0,3-3,3-1.26,0-2.94-.56-3.66.25s-.22,2.34-.22,3.57c0,4.29,0,8.58,0,12.87,0,.9-.23,1.25-1.14,1.14-1.25-.13-2.89.54-3.67-.29-.6-.64-.19-2.25-.2-3.44,0-4.2,0-8.4,0-12.6,0-1.16-.21-1.64-1.48-1.54-1.5.12-3,0-4.52,0-.65,0-.83-.2-.86-.85-.16-3.29-.18-3.29,3.08-3.29Z"/><path class="cls-1" d="M65.77,101.53c0-2.56,0-5.12,0-7.67,0-.93-.19-1.3-1.19-1.24-1.55.08-3.1,0-4.66,0-.71,0-1-.13-1.06-1-.08-3.17-.11-3.17,3.09-3.17,4.8,0,9.59,0,14.39,0,.94,0,1.24.23,1.23,1.2,0,3,0,2.93-2.9,3-1.27,0-2.94-.54-3.71.21s-.25,2.51-.26,3.82q-.06,6.3,0,12.61c0,1-.28,1.29-1.23,1.2-1.17-.11-2.7.47-3.45-.22s-.23-2.33-.27-3.53C65.73,105,65.77,103.27,65.77,101.53Z"/><path class="cls-2" d="M26.8,112.75c-6.41.48-14.58-4.15-17.16-9.66A10,10,0,0,1,11.2,92.21c1,3.3,3.75,4.61,6.62,5.71A21.32,21.32,0,0,0,21.89,99c.94.15,1.16.52,1.19,1.4a30.42,30.42,0,0,0,.63,5.7A14,14,0,0,0,26.8,112.75Z"/><path class="cls-2" d="M30.89,112.75c3-3.6,3.48-7.93,3.67-12.32,0-.9.28-1.23,1.19-1.4a19.43,19.43,0,0,0,7.73-2.94,6.34,6.34,0,0,0,3-4.14,10.83,10.83,0,0,1,2.45,8.15,11.63,11.63,0,0,1-3.15,6.4C42.36,110.18,35.43,113.12,30.89,112.75Z"/><path class="cls-2" d="M29.5,86.39A3.37,3.37,0,0,0,26.09,88a14.52,14.52,0,0,0-2.48,6.31c-.15.87-.44,1.14-1.31.92A15.57,15.57,0,0,1,16.6,93c-1.81-1.33-1.82-2.9,0-4.2,2.56-1.77,5.55-2.27,8.56-2.56a12.06,12.06,0,0,1,4.32,0q.15.07.09.15S29.54,86.39,29.5,86.39Z"/><path class="cls-2" d="M29.5,86.39a1.85,1.85,0,0,0,0-.23,21.45,21.45,0,0,1,10.72,2.12,5,5,0,0,1,1.32,1,2,2,0,0,1,0,3.31c-1.92,1.7-4.33,2.23-6.76,2.7-.67.13-.59-.39-.67-.76A17.66,17.66,0,0,0,32,88.6,5,5,0,0,0,29.5,86.39Z"/><path class="cls-2" d="M28.87,99.65c.55,0,1.09,0,1.64,0,1.9-.07,1.92-.07,1.66,1.77a13.43,13.43,0,0,1-1.57,5.46c-1.1,1.78-2.47,1.81-3.54,0a14.78,14.78,0,0,1-1.67-6.68c-.05-.61.26-.64.75-.62.91,0,1.82,0,2.73,0Z"/><path class="cls-2" d="M28.58,95.78l-.39,0c-3-.16-2.9.53-1.87-2.86.38-1.26.84-2.85,2.52-2.86s2,1.55,2.45,2.76c1.11,2.87,1.07,2.89-2,3C29.1,95.79,28.92,95.78,28.58,95.78Z"/><path class="cls-2" d="M84,99.76A7.77,7.77,0,0,1,86,94a5.91,5.91,0,0,1,8.94.16,8,8,0,0,1-.17,10.51,5.57,5.57,0,0,1-6,1.74A6.74,6.74,0,0,1,84.13,101,9,9,0,0,1,84,99.76Z"/><path class="cls-2" d="M142.56,99.47a7.68,7.68,0,0,1-2.78,5.87,5.87,5.87,0,0,1-7.95-.48,8,8,0,0,1-.13-10.81,5.92,5.92,0,0,1,9.36.67A8.18,8.18,0,0,1,142.56,99.47Z"/><path class="cls-2" d="M181.09,101.76h-6c1-2.59,1.94-5.09,3-7.86C179.15,96.66,180.1,99.17,181.09,101.76Z"/></svg>