<svg id="Layer_1" data-name="Layer 1" xmlns="http://www.w3.org/2000/svg" viewBox="0 0 200 200"><defs><style>.cls-1{fill:#293d5e;}.cls-2{fill:#dedc00;}</style></defs><title>brands</title><path class="cls-1" d="M28,97.81a4.08,4.08,0,0,1-2.61,3.87,4.91,4.91,0,0,1,3.21,4.48c0,4.47-3.36,5.91-7.52,5.91H11.54V92h9.52C25,92,28,93.76,28,97.81Zm-12.71,2.24h5.79c2.38,0,3.16-1,3.16-2.16,0-.91-.75-2.46-3.16-2.46H15.27Zm0,8.49h5.79c1.55,0,3.76-.52,3.76-2.41s-2.21-2.75-3.76-2.75H15.27Z"/><path class="cls-1" d="M63.31,92v16.59H73.64v3.5H59.52V92Z"/><path class="cls-1" d="M94,109.54a10.59,10.59,0,0,1-7.63,3c-7.46,0-10.62-5.14-10.65-10.36s3.39-10.59,10.65-10.59a10.4,10.4,0,0,1,7.37,3.07l-2.52,2.44a6.9,6.9,0,0,0-4.85-1.89c-4.85,0-6.95,3.61-6.92,7s2,6.8,6.92,6.8a7.4,7.4,0,0,0,5.05-2Z"/><path class="cls-1" d="M114,112.07h-4.51l-5.85-6.72H100v6.72H96.16V92l9.55,0c4.74,0,7.23,3.19,7.23,6.66a6,6,0,0,1-5.07,6.31l6.08,6.86ZM100,95.51v6.43h5.76a3.22,3.22,0,1,0,0-6.43Z"/><path class="cls-1" d="M124,100.28,129.3,92h4.56v.18l-8,11.62v8.29h-3.79v-8.29l-7.72-11.62V92h4.5Z"/><path class="cls-1" d="M145,106.16h-5.68v5.91h-3.79V92L145,92C154.81,92,154.84,106.16,145,106.16Zm-5.68-3.47H145c4.85,0,4.82-7.12,0-7.12h-5.68Z"/><path class="cls-1" d="M160.11,95.43h-6.37V92h16.53v3.45H163.9v16.64h-3.79Z"/><path class="cls-1" d="M192.31,102.14c-.06,5.19-3.25,10.39-10.3,10.39s-10.33-5.08-10.33-10.36S175.06,91.58,182,91.58,192.36,96.89,192.31,102.14Zm-16.9.09c.08,3.3,1.86,6.83,6.6,6.83s6.51-3.56,6.57-6.86S186.74,95,182,95,175.32,98.84,175.41,102.23Z"/><path class="cls-2" d="M53.2,96.31h0a2,2,0,0,0-.47,2.08A9.71,9.71,0,1,1,43.61,92h.09a2.06,2.06,0,0,0,1.47-.59h0A2,2,0,0,0,43.73,88a14.15,14.15,0,0,0-2,.13,13.73,13.73,0,1,0,14.83,8.92A2,2,0,0,0,53.2,96.31Z"/><circle class="cls-2" cx="50.16" cy="91.99" r="2"/></svg>