<svg id="Layer_1" data-name="Layer 1" xmlns="http://www.w3.org/2000/svg" viewBox="0 0 200 200"><defs><style>.cls-1{fill:#b1b1b1;}.cls-2{fill:#494947;}.cls-3{fill:#5c6a34;}.cls-4{fill:#5e5e5e;}.cls-5{fill:#f4f4f4;}</style></defs><title>brands</title><path class="cls-1" d="M179,130.59H44.73c0-3.76,0-7.52,0-11.28a8.4,8.4,0,0,1,1.42.08c2.35.07,4.71.18,7.06.21s4.83,0,7.24,0c3.65-.07,7.29-.22,10.94-.39,1.34-.06,2.69-.15,4-.26,1.7-.12,3.4-.27,5.1-.42,1.4-.12,2.79-.24,4.19-.38s3-.34,4.56-.51c.19.14.41.07.61.07q35.5,0,71,0a1,1,0,0,0,.61-.07q3.53.56,7,1.23c3.51.67,7,1.42,10.46,2.3q0,4.74,0,9.46m-56.77-10.36-.15,0c-.12.88-.25,1.75-.38,2.63-.24,1.72-.48,3.44-.73,5.16,0,.23-.22.5.19.57s.56,0,.6-.4.11-.82.17-1.23c.19-1.4.38-2.8.58-4.23a1.15,1.15,0,0,1,.34.51q1.22,2.44,2.44,4.89c.08.16.1.42.33.41s.23-.23.3-.38c.69-1.37,1.37-2.75,2.06-4.13a5,5,0,0,1,.7-1.26c.08.56.15,1,.21,1.48.19,1.35.39,2.7.57,4,0,.22.11.29.31.31.47,0,.57-.14.48-.76-.27-1.77-.51-3.55-.8-5.32a12.52,12.52,0,0,0-.43-2.41l-3.4,6.88-3.39-6.8m-11.69,8.54a4.38,4.38,0,1,0-4.38-4.5,4.34,4.34,0,0,0,4.38,4.5m-36.88-4.32A4.24,4.24,0,0,0,69.25,120a4.32,4.32,0,0,0-4.41,4.41,4.43,4.43,0,0,0,4.08,4.37,4.32,4.32,0,0,0,4.7-4.34m90.38,0a4.33,4.33,0,0,0,4.34,4.37,4.4,4.4,0,0,0,4.44-4.42,4.39,4.39,0,1,0-8.78.05m-19.28-2.08.3.28,4.92,5.68c.1.11.19.27.37.21s.11-.22.11-.35c0-2.53,0-5,0-7.58,0-.37-.18-.39-.46-.39s-.46,0-.45.4c0,1.58,0,3.16,0,4.74v1.21l-2.74-3.14c-.86-1-1.71-2-2.57-3-.08-.09-.15-.25-.31-.19s-.09.2-.09.3q0,3.85,0,7.7c0,.27.1.36.37.38s.57-.08.56-.53c0-1.88,0-3.75,0-5.76M93.24,124.4c0,1.26,0,2.51,0,3.76,0,.33.06.47.43.48a27.85,27.85,0,0,0,3.3-.12,3.36,3.36,0,0,0,2.76-1.85,5.06,5.06,0,0,0,.48-2.7,3.81,3.81,0,0,0-2.88-3.54,17.82,17.82,0,0,0-3.57-.24c-.44,0-.54.15-.53.56,0,1.22,0,2.43,0,3.65m-13.1-4.2a.51.51,0,0,0-.14.48V128c0,.28,0,.53.38.53s.43-.23.43-.54V123c0-.17-.09-.38.14-.54l2.35,2.69,2.77,3.17c.09.1.18.29.36.21s.08-.23.08-.36c0-2.49,0-5,0-7.46,0-.41-.17-.48-.51-.46s-.3.32-.3.54c0,1.91,0,3.82,0,5.85l-2.8-3.19-2.77-3.2m-24.89,8.57a4.4,4.4,0,0,0,3.34-1.26c.14-.14.44-.29.14-.54s-.45-.41-.77-.07a3.74,3.74,0,0,1-6.26-1.72A3.51,3.51,0,0,1,54,121.11a3.66,3.66,0,0,1,4,.89c.17.16.28.31.56.1s.32-.49,0-.76a4.74,4.74,0,0,0-3.95-1.27,4.33,4.33,0,0,0-3.78,5.32,4.22,4.22,0,0,0,4.4,3.38m82.05-4.36c0-1.26,0-2.51,0-3.76,0-.35-.11-.46-.46-.45s-.45.06-.45.4c0,2.53,0,5.05,0,7.57,0,.35.13.46.47.47s.43-.16.43-.48c0-1.25,0-2.5,0-3.75m20.45,0c0-1.26,0-2.51,0-3.77,0-.33-.09-.47-.45-.47s-.37.22-.37.48v7.42c0,.28,0,.47.38.47s.44-.16.44-.48c0-1.22,0-2.43,0-3.65"/><path class="cls-2" d="M57.74,65.42c0,4.12,0,8.25,0,12.37,0,.53-.1.69-.67.69q-12.15,0-24.29,0c-.88,0-.74-.11-.74.76q0,6.17,0,12.32c0,2.83,0,5.66,0,8.48q0,7.47,0,14.93a12.48,12.48,0,0,1-1.84-.2c-2.16-.19-4.28-.66-6.41-1-1.09-.17-2.17-.4-3.24-.67a5.71,5.71,0,0,1-1.62-.43q0-23.62,0-47.25Z"/><path class="cls-3" d="M18.93,112.67a6.06,6.06,0,0,0,1.62.43c1.07.27,2.15.5,3.24.67,2.13.33,4.24.8,6.41,1A11.25,11.25,0,0,0,32,115a1,1,0,0,0,.64.21c1.88.21,3.76.43,5.65.58,2.13.18,4.27.3,6.41.45,3.23.19,6.46.24,9.69.28,4,.06,8.06,0,12.09-.17,3-.11,6-.26,8.92-.53,2.06-.19,4.13-.29,6.19-.48,2.36-.23,4.71-.5,7.06-.77l6-.71c2.09-.25,4.17-.54,6.26-.76,1.83-.2,3.66-.32,5.5-.5,1.66-.15,3.32-.27,5-.35s3.6-.23,5.41-.29q6.9-.27,13.8-.13c3.57.08,7.14.24,10.7.45,3.11.19,6.21.49,9.3.8q3.74.38,7.44.91c3.8.55,7.58,1.17,11.35,1.9,4.54.88,9.05,1.9,13.52,3.11,2.9.78,5.77,1.64,8.6,2.62a2.35,2.35,0,0,1,1.46,1.15v1c-.88,1.26-1.54,1.12-2.59.74A116.17,116.17,0,0,0,179,121.13c-3.46-.88-6.95-1.63-10.46-2.3q-3.51-.67-7-1.23c-1.53-.23-3.06-.49-4.6-.69q-4.14-.52-8.29-1c-3.16-.32-6.32-.58-9.48-.75q-5.64-.31-11.28-.37c-3.41,0-6.81,0-10.21.13-2.85.09-5.69.28-8.54.46-1.42.08-2.83.21-4.25.35-1.72.16-3.43.35-5.14.55s-3.53.42-5.3.64l-5.13.63c-1.52.17-3,.36-4.56.51s-2.79.26-4.19.38c-1.7.15-3.4.3-5.1.42-1.34.11-2.69.2-4,.26-3.65.17-7.29.32-10.94.39-2.41,0-4.83.07-7.24,0s-4.71-.14-7.06-.21a8.4,8.4,0,0,0-1.42-.08c-1.44-.09-2.87-.15-4.3-.27-1.92-.16-3.84-.35-5.76-.55a20.45,20.45,0,0,1-2.58-.33,11.65,11.65,0,0,1-2-.22c-1.73-.17-3.44-.48-5.15-.78-2-.35-4-.78-6-1.18-.06-.09-.15-.09-.24-.11-2.27-.54-4.52-1.14-6.73-1.9a2.59,2.59,0,0,1-1.61-1.18v-.92c.69-1.17,1.21-1.34,2.53-.88.92.32,1.86.62,2.8.88a19.06,19.06,0,0,0,3.23.8"/><path class="cls-2" d="M19,116c2,.4,4,.83,6,1.18,1.71.3,3.42.61,5.15.78a11.65,11.65,0,0,0,2,.22c0,.14,0,.27,0,.4v12H18.93q0-7.31,0-14.61"/><path class="cls-4" d="M120.85,102.11a9.27,9.27,0,0,1,2.58-2.11,5.29,5.29,0,0,1,3.57-.56c1.89.4,2.54,2.09,2.39,3.91a33,33,0,0,1-1,4.17,4.7,4.7,0,0,0-.19,1.23c0,.54.26.7.79.63a3,3,0,0,0,1-.38,20.5,20.5,0,0,0,2.85-1.86.63.63,0,0,0,.27-.41c.93-3.9,3.54-6.12,7.27-7.18a4.94,4.94,0,0,1,3.24.11,1.82,1.82,0,0,1,1.33,2.24,2.65,2.65,0,0,1-2.81,1.75c-.39-.11-.5-.4-.27-.8a5.53,5.53,0,0,0,.6-1.22c.16-.57,0-.88-.58-1a4,4,0,0,0-3.36,1.19,6.77,6.77,0,0,0-2.23,5.72,2,2,0,0,0,2.13,1.79,9.51,9.51,0,0,0,3.79-.84,29.16,29.16,0,0,0,5.67-3.1,1,1,0,0,0,.41-.58c.24-.81.49-1.63.77-2.42a5.33,5.33,0,0,1,2.24-2.79,2.4,2.4,0,0,1,.61-.28c.44-.13.68.07.7.54a5.27,5.27,0,0,1-.4,1.7c-.62,2.23-1.42,4.42-1.93,6.68a2.32,2.32,0,0,0-.06.45c0,.59.18.76.76.66a5.06,5.06,0,0,0,1.79-.83c.76-.47,1.48-1,2.21-1.51a2.54,2.54,0,0,0,.93-1.22,10.08,10.08,0,0,1,6.89-6,18.26,18.26,0,0,1,5.76-.48c.38,0,.5.27.49.63a10.12,10.12,0,0,1-.63,2.52c-.54,2-1.29,3.86-1.69,5.86-.19,1,.15,1.3,1.1,1a9.61,9.61,0,0,0,3-1.76,42.26,42.26,0,0,0,3.31-3c.14-.13.28-.37.52-.19a.44.44,0,0,1,0,.66,19.55,19.55,0,0,1-7.71,6.22,4.73,4.73,0,0,1-1.49.32,1.57,1.57,0,0,1-1.76-1.64,9.26,9.26,0,0,1,.51-3.18c.55-1.78,1.13-3.56,1.7-5.33.2-.62.11-.76-.53-.76a6.65,6.65,0,0,0-4.38,1.9,6.92,6.92,0,0,0-2.51,4.87c-.1,1.47.76,2.17,2.17,1.71a4.72,4.72,0,0,0,1.58-.88c.16-.14.34-.29.54-.1a.4.4,0,0,1,0,.61c-1.54,1.58-3.27,2.8-5.59,2.72-1.2,0-1.68-1-1.8-2.25a11.49,11.49,0,0,1,0-1.19c-.56.44-1.07.84-1.6,1.22a11.91,11.91,0,0,1-4,2.16,2.56,2.56,0,0,1-1.17.11,1.48,1.48,0,0,1-1.3-1.42,8.79,8.79,0,0,1,.49-3.57c-1.13.84-2.16,1.63-3.25,2.34a15.66,15.66,0,0,1-6.18,2.56,5.86,5.86,0,0,1-3.08-.16,3.24,3.24,0,0,1-2.15-2.51,2.76,2.76,0,0,0-.08-.27s0-.06-.09-.11a23.58,23.58,0,0,1-2.92,2,7.7,7.7,0,0,1-2.72,1.07,1.61,1.61,0,0,1-2-1.76,10.28,10.28,0,0,1,.52-3,25.51,25.51,0,0,0,.92-3.32,2.86,2.86,0,0,0-.16-1.56,1.52,1.52,0,0,0-2-.8,6.51,6.51,0,0,0-3.84,3.27,43.24,43.24,0,0,0-1.84,4.25,7.44,7.44,0,0,1-1.44,2.48,1.62,1.62,0,0,1-1.34.49c-.72-.08-.89-.33-.67-1,.45-1.48.91-3,1.36-4.43a1.82,1.82,0,0,0,.06-.32c-1.21.94-2.34,1.86-3.54,2.67a17.09,17.09,0,0,1-6.12,2.86,7,7,0,0,1-3.37.1,3.41,3.41,0,0,1-2.67-3.76c.29-3.61,2.4-5.9,5.47-7.46a7,7,0,0,1,4.28-.8,4,4,0,0,1,1,.29,2.37,2.37,0,0,1,.81,3.69,5.66,5.66,0,0,1-3.73,2.06,19.4,19.4,0,0,1-2,.25c-.28,0-.56,0-.59-.38s.23-.36.49-.44A6.21,6.21,0,0,0,110,103l.07-.08a1.75,1.75,0,0,0,.34-1.89c-.46-.64-1.11-.48-1.71-.32a5.71,5.71,0,0,0-3.78,3.57,7.19,7.19,0,0,0-.57,2.41c-.16,2.09,1.35,2.94,3.15,2.64,3.27-.55,6-2.24,8.74-4a2.88,2.88,0,0,0,1.35-1.91,5.72,5.72,0,0,1,2.4-3.66c.37-.25.8-.61,1.24-.31s.2.83.1,1.25-.3,1-.45,1.45"/><path class="cls-1" d="M44.74,116.19c-2.14-.15-4.28-.27-6.41-.44-1.89-.16-3.77-.38-5.65-.59A1,1,0,0,1,32,115q0-7.45,0-14.92c0-2.82,0-5.65,0-8.48,4,0,8,0,12,0,.5,0,.63.11.63.62q0,11.55,0,23.1c0,.31,0,.61,0,.92"/><path class="cls-4" d="M74,107.52a22.77,22.77,0,0,1-4.57,3.29,4.81,4.81,0,0,1-2.91.74,1.33,1.33,0,0,1-1.17-1.14,5.66,5.66,0,0,1,.27-3.08,81.15,81.15,0,0,1,6.67-16.27A34.31,34.31,0,0,1,76,85.85c.15-.17.29-.47.59-.27s.1.42,0,.62c-2.91,5.44-4.77,11.29-6.72,17.11a43.58,43.58,0,0,0-1.41,4.6c-.1.47-.35,1,.08,1.39s.94,0,1.38-.22A23.5,23.5,0,0,0,74,106.3a.93.93,0,0,0,.31-.53,8.52,8.52,0,0,1,7-6.35,8.68,8.68,0,0,1,3.33.13,3.5,3.5,0,0,1,2.73,3.35,8.32,8.32,0,0,1-6.72,8.52,8.54,8.54,0,0,1-3.56,0,3.37,3.37,0,0,1-2.86-3.09c0-.24-.08-.48-.13-.8m3.21-.79a4.38,4.38,0,0,0,.65,2.72c.66,1,1.94,1.12,3.2.35a6.68,6.68,0,0,0,3-7c-.45-2.27-2.09-2.89-4-1.57l0,0a6.61,6.61,0,0,0-2.78,5.44"/><path class="cls-4" d="M55.49,93c-1.15.28-2.21.52-3.26.8a37.14,37.14,0,0,0-3.68,1.13A1,1,0,0,1,48,95c-.29-.06-.38-.23-.2-.5a1,1,0,0,1,.39-.31,53.81,53.81,0,0,1,13.94-4.81c2.48-.5,5-.9,7.47-1.33.34-.06.51.06.49.41a2.39,2.39,0,0,1-1.28,1.84,5.46,5.46,0,0,1-2.26.69c-2.62.35-5.23.82-7.83,1.29-.25,0-.54.06-.6.45a41.23,41.23,0,0,1-1.39,5.57c0,.13.13.11.2.11a41,41,0,0,0,7.5-.78,8.51,8.51,0,0,0,1-.3c.2-.07.37-.09.5.11s0,.33-.13.45a2.72,2.72,0,0,1-.86.64,26.83,26.83,0,0,1-8.84,2.87.69.69,0,0,0-.64.5,54.94,54.94,0,0,1-5.07,10.5,20.25,20.25,0,0,1-2.47,3.13c-.16.16-.34.39-.57.21s-.08-.41,0-.62a94.72,94.72,0,0,0,5.57-14.17c.88-2.6,1.69-5.23,2.56-8"/><path class="cls-4" d="M93.8,102.43a11.46,11.46,0,0,1,3.79-2.69,5.33,5.33,0,0,1,2.61-.42,1.65,1.65,0,0,1,1.49,1.87,1.68,1.68,0,0,1-1.92,1.56,1.05,1.05,0,0,1-.8-.58,1.77,1.77,0,0,0-2.63-.57,9.3,9.3,0,0,0-3.22,3.81,25.34,25.34,0,0,0-1.27,3.33,5.39,5.39,0,0,1-1.38,2.32,1.81,1.81,0,0,1-1.67.49c-.56-.13-.69-.33-.51-.9.72-2.3,1.49-4.59,2.17-6.9a7,7,0,0,1,2-3.65,3.74,3.74,0,0,1,1.1-.7c.24-.09.49-.16.69,0a.67.67,0,0,1,.17.74l-.66,2.26"/><path class="cls-4" d="M151,96.54a2.84,2.84,0,0,1,1.51-2.26c1-.55,1.66.25,1.64,1.25a2.62,2.62,0,0,1-1.48,2.33c-.89.48-1.66-.09-1.67-1.32"/><path class="cls-5" d="M122.18,120.23c1.13,2.24,2.25,4.49,3.4,6.8l3.4-6.88a12.52,12.52,0,0,1,.43,2.41c.29,1.77.53,3.55.8,5.33.09.61,0,.78-.48.75-.2,0-.29-.09-.31-.31-.18-1.34-.38-2.69-.57-4-.06-.46-.13-.92-.21-1.48a5,5,0,0,0-.7,1.26c-.69,1.38-1.37,2.76-2.06,4.13-.08.15-.11.38-.3.38s-.25-.25-.33-.41l-2.45-4.89a1,1,0,0,0-.33-.51c-.2,1.43-.39,2.83-.58,4.23-.06.41-.14.82-.18,1.23s-.28.45-.59.4-.23-.34-.19-.57c.24-1.72.49-3.44.73-5.16.13-.88.25-1.75.38-2.63l.14,0"/><path class="cls-5" d="M110.5,128.77a4.38,4.38,0,1,1,4.43-4.29,4.34,4.34,0,0,1-4.43,4.29m3.52-4.36a3.48,3.48,0,0,0-3.45-3.55,3.61,3.61,0,0,0-3.56,3.52,3.56,3.56,0,0,0,3.47,3.59,3.45,3.45,0,0,0,3.54-3.56"/><path class="cls-5" d="M73.62,124.45a4.32,4.32,0,0,1-4.7,4.34,4.43,4.43,0,0,1-4.08-4.37A4.32,4.32,0,0,1,69.25,120a4.24,4.24,0,0,1,4.37,4.44m-4.34-3.57a3.46,3.46,0,0,0-3.55,3.51,3.52,3.52,0,0,0,3.5,3.58,3.57,3.57,0,0,0,3.58-3.59,3.53,3.53,0,0,0-3.53-3.5"/><path class="cls-5" d="M164,124.43a4.39,4.39,0,1,1,8.78-.05,4.4,4.4,0,0,1-4.44,4.42,4.33,4.33,0,0,1-4.34-4.37m4.35-3.55a3.55,3.55,0,0,0,0,7.09,3.54,3.54,0,0,0,3.54-3.53,3.48,3.48,0,0,0-3.54-3.56"/><path class="cls-5" d="M144.72,122.35c0,2,0,3.88,0,5.76,0,.45-.15.56-.56.53s-.37-.11-.37-.38q0-3.84,0-7.7c0-.1-.05-.25.09-.3s.23.1.31.19c.86,1,1.71,2,2.57,3l2.74,3.14v-1.21c0-1.58,0-3.16,0-4.74,0-.35.15-.41.45-.4s.46,0,.46.39c0,2.53,0,5,0,7.58,0,.13.05.29-.11.35s-.28-.1-.37-.21L145,122.63l-.3-.28"/><path class="cls-5" d="M93.24,124.4c0-1.22,0-2.43,0-3.65,0-.41.09-.56.53-.56a17.82,17.82,0,0,1,3.57.24,3.81,3.81,0,0,1,2.88,3.54,5.06,5.06,0,0,1-.48,2.7A3.35,3.35,0,0,1,97,128.52a27.85,27.85,0,0,1-3.3.12c-.36,0-.44-.15-.43-.48,0-1.25,0-2.5,0-3.76m.8,0c0,1,0,1.94,0,2.91,0,.34.11.48.46.46s1,0,1.48,0c2.06,0,3.11-.82,3.39-2.83a3.16,3.16,0,0,0-2.52-3.69,19.13,19.13,0,0,0-2.39-.12c-.32,0-.42.12-.42.44,0,.95,0,1.9,0,2.85"/><path class="cls-5" d="M80.14,120.2l2.77,3.2,2.8,3.19c0-2,0-3.94,0-5.85,0-.22-.12-.52.3-.54s.52,0,.51.46c0,2.48,0,5,0,7.46,0,.13.07.3-.08.36s-.27-.11-.36-.21L83.3,125.1,81,122.41c-.23.16-.14.37-.14.54V128c0,.31,0,.55-.43.54S80,128.31,80,128v-7.35a.51.51,0,0,1,.14-.48"/><path class="cls-5" d="M55.25,128.77a4.22,4.22,0,0,1-4.4-3.38,4.33,4.33,0,0,1,3.78-5.32,4.77,4.77,0,0,1,4,1.27c.28.28.33.48,0,.76s-.39.06-.56-.1a3.68,3.68,0,0,0-4-.89,3.51,3.51,0,0,0-2.25,4.07A3.74,3.74,0,0,0,58,126.9c.32-.34.54-.12.77.07s0,.4-.14.54a4.4,4.4,0,0,1-3.34,1.26"/><path class="cls-5" d="M137.3,124.41c0,1.25,0,2.5,0,3.75,0,.32-.06.5-.43.48s-.48-.12-.47-.47c0-2.52,0-5,0-7.57,0-.34.16-.39.45-.4s.47.1.46.45c0,1.25,0,2.51,0,3.76"/><path class="cls-5" d="M157.75,124.43c0,1.22,0,2.43,0,3.65,0,.32-.07.49-.44.48s-.38-.19-.38-.47v-7.42c0-.26,0-.47.37-.48s.46.14.45.47c0,1.26,0,2.51,0,3.77"/><path class="cls-1" d="M114,124.41a3.45,3.45,0,0,1-3.54,3.56,3.56,3.56,0,0,1-3.47-3.59,3.61,3.61,0,0,1,3.56-3.52,3.48,3.48,0,0,1,3.45,3.55"/><path class="cls-1" d="M69.28,120.88a3.53,3.53,0,0,1,3.53,3.5A3.57,3.57,0,0,1,69.23,128a3.52,3.52,0,0,1-3.5-3.58,3.46,3.46,0,0,1,3.55-3.51"/><path class="cls-1" d="M168.35,120.88a3.48,3.48,0,0,1,3.54,3.56,3.54,3.54,0,1,1-7.07,0,3.5,3.5,0,0,1,3.53-3.54"/><path class="cls-1" d="M94,124.39c0-1,0-1.9,0-2.85,0-.32.1-.45.42-.44a19.13,19.13,0,0,1,2.39.12,3.16,3.16,0,0,1,2.52,3.69c-.28,2-1.33,2.81-3.39,2.83-.49,0-1,0-1.48,0s-.46-.12-.46-.46c0-1,0-1.94,0-2.91"/></svg>