<svg id="Layer_1" data-name="Layer 1" xmlns="http://www.w3.org/2000/svg" viewBox="0 0 200 200"><defs><style>.cls-1{fill:#49b900;}.cls-2{fill:#002e50;}.cls-3{fill:#002e4f;}.cls-4{fill:#032b4d;}.cls-5{fill:#042c4e;}.cls-6{fill:#042d4e;}.cls-7{fill:#052d4e;}.cls-8{fill:#052e4f;}.cls-9{fill:#052d4f;}.cls-10{fill:#042d4f;}.cls-11{fill:#072f50;}.cls-12{fill:#0b3253;}.cls-13{fill:#a2da7d;}.cls-14{fill:#fefefe;}.cls-15{fill:#fcfcfd;}.cls-16{fill:#fcfcfc;}.cls-17{fill:#fdfefe;}.cls-18{fill:#fdfdfd;}.cls-19{fill:#f9fafb;}.cls-20{fill:#eff2f4;}.cls-21{fill:#f5f6f8;}</style></defs><title>brands</title><path class="cls-1" d="M106.78,83.05a124.69,124.69,0,0,1,65-2.9,97.32,97.32,0,0,0-36.2,24.7l.85-1.31c.28-.46.57-.92.84-1.39A21.32,21.32,0,0,0,140,95a9.49,9.49,0,0,0-5.3-10.58,26.25,26.25,0,0,0-11.32-2.57,70.13,70.13,0,0,0-15.9,1.41C107.21,83.32,106.84,83.61,106.78,83.05Z"/><path class="cls-1" d="M126.36,72.5A122.71,122.71,0,0,1,194,80.91a97.45,97.45,0,0,0-40.06,17.41c.89-1.27,1.91-2.41,2.76-3.68a15.87,15.87,0,0,0,2.78-6.43c.1-.68.59-.84,1.06-1.08a92.88,92.88,0,0,1,17.89-7c0-.43-.38-.34-.61-.4a124.69,124.69,0,0,0-27.09-4.22,4,4,0,0,1-1.13-.21c-7-2.45-14.33-3-21.72-2.84C127.36,72.51,126.86,72.5,126.36,72.5Z"/><path class="cls-2" d="M100.17,109.85l-1.08-.07c-4.14-.38-6.44-3.26-5.89-7.4.65-4.81,3.39-8.19,7.44-10.6a13.09,13.09,0,0,1,7.39-2c4.56.21,7.22,3.52,6.43,8C113.31,104.24,106.39,110,100.17,109.85Z"/><path class="cls-2" d="M30.59,109.71a7.55,7.55,0,0,1-4.42-1.11,5.94,5.94,0,0,1-2.61-5.93c.59-7.11,7.94-13.42,15.05-13,4.48.28,7.07,3.61,6.25,8C43.65,104.15,37.05,109.71,30.59,109.71Z"/><path class="cls-2" d="M51,101.88c-.86,2.34-1.63,4.36-2.33,6.4a1.07,1.07,0,0,1-1.25.87c-1-.06-2,0-3,0-.6,0-.84,0-.57-.75q3.22-8.62,6.35-17.3a1.05,1.05,0,0,1,1.18-.81c2,0,4.1,0,6.15,0,4.18.07,5.68,2.31,4.08,6.17a7.77,7.77,0,0,1-5,4.77c-.64.19-.65.41-.44,1,.79,2.05,1.51,4.14,2.31,6.19.26.65.12.81-.54.79-1.43,0-2.86,0-4.29,0-.63,0-.87-.21-1-.81C52.08,106.32,51.55,104.26,51,101.88Z"/><path class="cls-3" d="M67.9,101.92c-.84,2.29-1.62,4.3-2.31,6.33-.24.69-.54,1-1.31,1a19.91,19.91,0,0,0-2.89,0c-.86,0-.86-.24-.6-.92Q64,99.7,67.11,91.11a1,1,0,0,1,1.08-.78c2.08,0,4.17,0,6.26,0,4.2.06,5.66,2.27,4,6.15a7.8,7.8,0,0,1-5,4.77c-.66.19-.64.44-.44,1,.78,2,1.5,4,2.29,6.07.25.63.24.9-.55.88-1.42,0-2.86-.06-4.28,0-.67,0-.86-.28-1-.83C69,106.31,68.48,104.26,67.9,101.92Z"/><path class="cls-3" d="M116.37,103.67a9.08,9.08,0,0,0,1.8,1.51,3.46,3.46,0,0,0,4.37-.93c.65-1,.52-1.66-.52-2.17-.87-.42-1.81-.68-2.7-1.06-1.67-.73-2.24-1.72-1.86-3.51,1.16-5.46,7.05-9.56,13.17-6.57.7.33,1,.6.3,1.29-.92.94-1.73,2-2.64,3-1.14-1-2.38-1.58-3.88-.94-.74.32-1.42.76-1.46,1.64s.79,1.13,1.46,1.41,1.61.58,2.35,1a2.92,2.92,0,0,1,1.65,3.27c-.77,6.1-8.37,10.07-13.78,7.21l-.1,0c-1.77-1-1.77-1-.47-2.47C114.82,105.42,115.58,104.56,116.37,103.67Z"/><path class="cls-2" d="M91.73,97.64c-.5,1.36-1,2.5-1.34,3.67-.16.48-.47.52-.88.52-1.24,0-2.48,0-3.71,0a1.06,1.06,0,0,0-1.25.88c-.21.73-.5,1.44-.82,2.32h5.58c-.48,1.32-.93,2.47-1.33,3.63a.75.75,0,0,1-.84.58c-3,0-6,0-8.93,0-.72,0-.74-.22-.52-.81q3.23-8.68,6.39-17.4a.85.85,0,0,1,.91-.68q4.45.06,8.93,0c.62,0,.76.19.49.73-.06.14-.11.29-.16.44-1.12,3.13-1.12,3.13-4.46,3-2.49-.08-2.48-.06-3.15,2.41-.16.56,0,.66.52.65C88.62,97.62,90.09,97.64,91.73,97.64Z"/><path class="cls-2" d="M22.82,96.47A4.27,4.27,0,0,0,17.4,94.9a7.83,7.83,0,0,0-5,5.69c-.67,2.79,1.11,4.63,4,4.18a9.21,9.21,0,0,0,4.09-1.93l-2,5.52a.7.7,0,0,1-.48.45c-2.44.76-4.9,1.21-7.35.1a6,6,0,0,1-3.54-6.64c.84-6.12,6.8-11.83,13-12.45a9,9,0,0,1,4.1.54c.54.21.82.4.54,1.09C24,93.05,23.47,94.69,22.82,96.47Z"/><path class="cls-4" d="M70.19,123.17a3.47,3.47,0,0,1-3.5-4.45,5.67,5.67,0,0,1,4-4.37,3.55,3.55,0,0,1,4.75,4.25A5.83,5.83,0,0,1,70.19,123.17Z"/><path class="cls-5" d="M41.8,123c-.31,0-.62,0-.93,0-.48,0-.59-.17-.49-.62.55-2.52,1.09-5,1.62-7.57.06-.29.16-.53.5-.53,1.52,0,3.15-.24,4.3,1.13a3.84,3.84,0,0,1,.36,4.15A5.36,5.36,0,0,1,41.8,123Z"/><path class="cls-6" d="M100.65,119.36c-.22,1-.44,1.93-.65,2.9-.09.42-.12.92-.74.8s-.26-.61-.2-.91c.48-2.35,1-4.68,1.48-7,.13-.62.39-.87,1-.78a3.53,3.53,0,0,0,.46,0c1.59,0,2.39.47,2.57,1.45a3,3,0,0,1-1.75,3.11c-.84.29-.85.6-.46,1.27a15.55,15.55,0,0,1,.93,2c.11.27.61.62.13.87a.76.76,0,0,1-1.11-.48c-.44-1.07-.95-2.11-1.42-3.16Z"/><path class="cls-6" d="M92.19,113.9c.62,3,1.18,5.83,1.74,8.62,0,.23.11.49-.23.53s-.64.11-.79-.27c-.07-.18,0-.39-.12-.57-.23-.51.07-1.41-.53-1.53a6.06,6.06,0,0,0-3.3.08c-.53.22-.82,1.08-1.17,1.68s-.66.83-1.38.48Z"/><path class="cls-7" d="M121.4,113.91c.61,3.09,1.15,5.85,1.7,8.6.06.29.12.56-.29.59s-.56.06-.69-.26-.05-.39-.13-.56c-.24-.54.13-1.48-.6-1.6a6.15,6.15,0,0,0-3.19.09c-.53.22-.83,1.07-1.18,1.66a1,1,0,0,1-1.43.56Z"/><path class="cls-8" d="M49.24,122.05h2.7c.25,0,.59-.09.6.33s-.14.6-.54.6H48.53c-.49,0-.44-.26-.36-.61.54-2.48,1.08-5,1.6-7.46.09-.43.26-.67.75-.66,1,0,2.09,0,3.13,0,.24,0,.6-.09.58.34s-.14.6-.56.59a12.5,12.5,0,0,1-1.62,0c-1-.16-1.44.22-1.68,1.27s0,1.43,1.09,1.29a10.75,10.75,0,0,1,1.39,0c.27,0,.57,0,.52.41s-.15.53-.49.53a20.59,20.59,0,0,1-2.08,0c-.7-.07-1,.22-1,.87C49.63,120.35,49.43,121.14,49.24,122.05Z"/><path class="cls-7" d="M65.82,116.17a3,3,0,0,0-4-.66,4.39,4.39,0,0,0-2.54,4,2.67,2.67,0,0,0,3.61,2.57,17.23,17.23,0,0,0,1.76-.81,1.4,1.4,0,0,1-1.09,1.54,3.76,3.76,0,0,1-4.22-.6,3.67,3.67,0,0,1-.78-4.18c.89-2.46,3.43-4.18,5.71-3.87C65.72,114.35,66.13,114.84,65.82,116.17Z"/><path class="cls-9" d="M115.92,116.18c-1.54-1.23-2.65-1.35-4.12-.49a4.49,4.49,0,0,0-2.34,4.21,2.69,2.69,0,0,0,3.6,2.25,13.78,13.78,0,0,0,1.72-.8,1.23,1.23,0,0,1-.81,1.42,4,4,0,0,1-4.45-.44,3.85,3.85,0,0,1-.77-4.3c1-2.6,3.75-4.3,6.09-3.71C116.09,114.63,116.29,115,115.92,116.18Z"/><path class="cls-10" d="M78.25,123.19a2.05,2.05,0,0,1-2.13-1.73c0-.35,0-.57.39-.7s.52,0,.61.38a1.25,1.25,0,0,0,1.52,1.08,2.13,2.13,0,0,0,1.83-1.7c.19-.8-.35-1.2-.94-1.54-.23-.14-.48-.24-.72-.37-1.39-.75-1.74-1.8-1-3a2.77,2.77,0,0,1,3.6-1.13c.39.26,1,.6.63,1.15s-.76.13-1.14-.22a1.51,1.51,0,0,0-2.19.52c-.56.84-.16,1.37.58,1.77l.42.21c1.62.85,2,1.47,1.73,2.72A3.48,3.48,0,0,1,78.25,123.19Z"/><path class="cls-11" d="M86.22,114.32c.61,0,1.23,0,1.85,0,.24,0,.59-.07.55.37,0,.28-.15.6-.48.53-2.07-.46-1.9,1.16-2.18,2.33-.37,1.58-.69,3.16-1,4.75-.09.44-.17.9-.77.74s-.21-.64-.16-.94c.39-2,.79-3.93,1.25-5.88.17-.72.19-1.09-.72-1-.32,0-1,.33-1-.36s.6-.54,1-.55,1.08,0,1.62,0Z"/><path class="cls-12" d="M107.91,114.88c-.56,2.61-1.1,5.13-1.63,7.65-.08.4-.24.63-.68.57s-.34-.4-.28-.7c.54-2.48,1.08-5,1.6-7.44.09-.45.26-.71.75-.62S107.91,114.73,107.91,114.88Z"/><path class="cls-13" d="M106.78,83.05c.13.37.48.12.7.25a17.7,17.7,0,0,1-3.17.71A5.91,5.91,0,0,1,106.78,83.05Z"/><path class="cls-14" d="M105.73,94.56a3.3,3.3,0,0,1,3.45,4.3,8.11,8.11,0,0,1-6.34,6.09c-3,.66-5-1.46-4.28-4.48A8,8,0,0,1,105.73,94.56Z"/><path class="cls-14" d="M39.72,97.86c0,3.47-4.28,7.36-7.74,7.09a3.2,3.2,0,0,1-3.15-3.33c-.07-3.7,4.1-7.54,7.78-7.15A3.26,3.26,0,0,1,39.72,97.86Z"/><path class="cls-15" d="M54.68,94.1c2.14.09,2.74,1.21,1.65,3a4.2,4.2,0,0,1-3.72,1.68c-.4-.07-.42-.22-.3-.54q.69-1.84,1.35-3.69C53.86,94,54.32,94.11,54.68,94.1Z"/><path class="cls-16" d="M71.66,94.13c2.07.09,2.67,1.2,1.64,2.92-.85,1.4-2.22,1.67-3.7,1.73-.48,0-.47-.23-.34-.58.45-1.19.9-2.38,1.32-3.58C70.79,94,71.28,94.16,71.66,94.13Z"/><path class="cls-17" d="M74.57,117.85a4.65,4.65,0,0,1-3.88,4.38,2.78,2.78,0,0,1-3.11-3.12,4.74,4.74,0,0,1,3.78-4A2.69,2.69,0,0,1,74.57,117.85Z"/><path class="cls-18" d="M43.62,115.2c2.33.06,3.43,1.58,2.78,3.73a4.3,4.3,0,0,1-4.14,3.1c-.57,0-.86-.06-.69-.75.42-1.8.8-3.61,1.17-5.42C42.85,115.28,43.11,115,43.62,115.2Z"/><path class="cls-19" d="M103.59,116.5a1.94,1.94,0,0,1-2.11,1.84c-.28,0-.6.14-.58-.42.07-1.48.64-2.69,1.35-2.64S103.63,115.57,103.59,116.5Z"/><path class="cls-20" d="M89.52,119.68l2.06-3.29a14.77,14.77,0,0,1,.67,2.83c.1.4-.16.45-.46.45Z"/><path class="cls-21" d="M118.81,119.58l2-3.25c.11.5.19.79.25,1.08C121.58,120,121.58,120,118.81,119.58Z"/></svg>