<svg id="Layer_1" data-name="Layer 1" xmlns="http://www.w3.org/2000/svg" viewBox="0 0 100 100"><defs><style>.cls-1{fill:#00a99d;}</style></defs><title>column-icon</title><path class="cls-1" d="M45.44,44.79c3-2.18,4.61-2.26,7.59-.54a1.88,1.88,0,0,0,1.55.1c6.48-3.26,13-6.55,19.37-9.92a2.14,2.14,0,0,0,1-1.63,2.47,2.47,0,0,0-1-1.81c-6.3-3.31-12.66-6.52-19-9.75-1.17-.59-3.27.37-4,1.67A2.28,2.28,0,0,1,49.52,24c-.32.06-.76-.7-1.18-1.06-.91-.81-1.84-1.59-2.74-2.37a39.85,39.85,0,0,1-4.12,2c-.5.18-1.24-.27-1.87-.43a6,6,0,0,1,.73-1.76,3.8,3.8,0,0,1,1.56-.85,3.4,3.4,0,0,0,2.58-3.42,5,5,0,0,1,5.05-4.47,5.27,5.27,0,0,1,5.32,4.94,2.48,2.48,0,0,0,1.64,2.53q9.23,4.58,18.35,9.29a2.27,2.27,0,0,0,2.68-.13A5.16,5.16,0,0,1,85,30a5.41,5.41,0,0,1-2.06,7.43,2.71,2.71,0,0,0-1.15,1.9c-.12,3.46,0,6.93-.12,10.39,0,.71-.82,1.38-1.26,2.07-.45-.69-1.26-1.36-1.29-2.07-.14-3.33-.06-6.66-.07-10a2.8,2.8,0,0,0-4.2-2.67c-6.18,3.12-12.34,6.27-18.54,9.36a2,2,0,0,0-1.38,2.08c.08,2.12-1.09,3.58-2.84,4.71A2.56,2.56,0,0,0,51,55c-.07,7.39-.05,14.79,0,22.19a3,3,0,0,0,3.88,2.4c6.36-3.2,12.7-6.45,19.06-9.65,1.53-.77,1.39-1.81.74-3.09-.27-.53-.6-1.33-.39-1.72s1.07-.49,1.66-.53A3.6,3.6,0,0,0,79,61.33c0-1.53,0-3.07,0-4.6,0-1,0-2.27,1.4-2.11.5.06,1.15,1.3,1.21,2.05.17,2,.06,4.13.06,6.15a20.53,20.53,0,0,1,2.42,1.74,5.18,5.18,0,0,1,.27,7.22,5.05,5.05,0,0,1-7.14.79,1.87,1.87,0,0,0-2.43-.2q-9.23,4.77-18.5,9.43a2.06,2.06,0,0,0-1.44,2,5.13,5.13,0,0,1-5,5.17,5.51,5.51,0,0,1-5.6-5.14,2.6,2.6,0,0,0-1-1.81c-6.66-3.49-13.37-6.89-20.13-10.34-1.67,1.49-3.46,2.45-5.8,1.61a5,5,0,0,1-3.69-4.26,4.81,4.81,0,0,1,2.66-5.33,2.16,2.16,0,0,0,1.28-2.36c0-3.53,0-7.06,0-10.6,0-1.07-.55-2.8,1.32-2.75s1.19,1.78,1.21,2.84c.07,4,0,8,0,12.4,1.32.38,2.71.74,4.08,1.17,1.19.37,1.36,1.15.69,2.15-1.29,1.9-1.18,2.48.76,3.46q9.26,4.71,18.52,9.39A2.79,2.79,0,0,0,48.28,77c0-7.27,0-14.53,0-21.8a2.84,2.84,0,0,0-1.11-2,6.15,6.15,0,0,1-2.91-5,2.26,2.26,0,0,0-1-1.61Q33.64,41.67,24,36.86c-1.38-.69-3.79.78-3.83,2.32a36.49,36.49,0,0,1-.08,4.19c-.09.67-.82,1.24-1.26,1.86A13.58,13.58,0,0,1,17.6,43.3a4,4,0,0,1,0-1.59c.1-2.05.1-3.79-2.16-5.14s-2.45-4.71-.85-6.95a5.07,5.07,0,0,1,7.07-1.41,2.55,2.55,0,0,0,3,.07c3.29-1.75,6.64-3.39,10-5.09.93-.48,2-1,2.49.32.17.49-.63,1.66-1.26,2-3.45,1.89-7,3.57-10.46,5.43a2.45,2.45,0,0,0-1.14,1.71,2.29,2.29,0,0,0,1,1.77C31.93,37.92,38.64,41.31,45.44,44.79Zm-26.72-9.4a2.86,2.86,0,0,0,2.85-2.52A2.76,2.76,0,0,0,18.86,30a2.68,2.68,0,0,0-.14,5.36Zm.15,30.24A2.68,2.68,0,0,0,18.71,71a2.68,2.68,0,1,0,.16-5.36Zm33.4,18.15A2.88,2.88,0,0,0,49.71,81a2.84,2.84,0,0,0-2.79,2.58,2.76,2.76,0,0,0,2.65,2.89A2.79,2.79,0,0,0,52.27,83.78Zm0-66.69a2.68,2.68,0,0,0-2.83-2.66,2.65,2.65,0,1,0,2.83,2.66ZM83,68.3a2.66,2.66,0,0,0-5.32-.08A2.66,2.66,0,0,0,80.2,71,2.73,2.73,0,0,0,83,68.3ZM80.35,35.41A2.74,2.74,0,0,0,83,32.72a2.58,2.58,0,0,0-2.62-2.67,2.78,2.78,0,0,0-2.7,2.66A2.72,2.72,0,0,0,80.35,35.41ZM49.62,51a2.66,2.66,0,0,0,.08-5.32,2.77,2.77,0,0,0-2.78,2.74A2.66,2.66,0,0,0,49.62,51Z"/><path class="cls-1" d="M91.69,7.48H73.52a10.06,10.06,0,0,1-2.58-.07c-.57-.15-1-.81-1.51-1.24.5-.43.95-1.11,1.51-1.24a14.1,14.1,0,0,1,3-.06c6,0,12,0,18,0,1.86,0,2.46.69,2.44,2.47-.06,6.65,0,13.31,0,20,0,1,.22,2.43-1.36,2.37s-1.24-1.45-1.24-2.48C91.69,20.72,91.69,14.27,91.69,7.48Z"/><path class="cls-1" d="M91.69,91.87V74.67c0-.94,0-1.87,0-2.8s-.09-2.28,1.33-2.12c.5.06,1.11,1.27,1.22,2A29.1,29.1,0,0,1,94.31,76c0,5.4,0,10.79,0,16.18,0,1.68-.58,2.38-2.34,2.36-6.79-.06-13.58,0-20.37,0-1.06,0-2.25,0-2.08-1.4.06-.48,1.35-1.15,2.08-1.16C78.21,91.83,84.8,91.87,91.69,91.87Z"/><path class="cls-1" d="M7.51,7.62V24a27.93,27.93,0,0,1-.07,4c-.09.62-.78,1.16-1.2,1.74C5.79,29.09,5,28.49,5,27.86c-.12-4.13-.06-8.26-.07-12.39,0-2.86,0-5.73,0-8.59,0-1.44.6-2,2-2,6.93,0,13.86,0,20.78,0,1,0,2.12.15,1.91,1.36-.09.52-1.32,1.19-2,1.2-6.13.09-12.26.05-18.39.06C8.74,7.49,8.28,7.56,7.51,7.62Z"/><path class="cls-1" d="M7.51,91.87c6.6,0,12.86,0,19.11,0a5.88,5.88,0,0,1,2,.12c.46.17,1,.76,1,1.17s-.57,1-1,1.22a3,3,0,0,1-1.38.1c-6.59,0-13.19,0-19.78,0-1.85,0-2.65-.51-2.62-2.5.09-6.66,0-13.32,0-20,0-.2-.08-.45,0-.6.37-.61.78-1.18,1.18-1.78.47.59,1.33,1.17,1.35,1.77.12,3.79.07,7.59.07,11.39Z"/><path class="cls-1" d="M51.71,34.18l-2.18,2.2c-.41-.72-1.14-1.44-1.15-2.16s.72-1.43,1.12-2.15Z"/><path class="cls-1" d="M51.6,40.25l-2,2.23a7.38,7.38,0,0,1-1.26-2.06c-.21-1-.1-2.25,1.26-2.17C50.2,38.29,50.72,39.32,51.6,40.25Z"/><path class="cls-1" d="M31.37,60.64A28.27,28.27,0,0,1,35,59c.22-.07.74.82,1.12,1.26a24.35,24.35,0,0,1-2.93,1.94C33,62.26,32.36,61.47,31.37,60.64Z"/><path class="cls-1" d="M47.35,55a16.19,16.19,0,0,1-2.92,1.51c-.34.09-1-.77-1.45-1.19a17.53,17.53,0,0,1,2.7-2c.32-.15,1.06.56,1.61.87Z"/><path class="cls-1" d="M54.81,57.26l-2.69-2.74c.43-.41,1.11-1.25,1.26-1.17a15.63,15.63,0,0,1,2.75,2.12S55.48,56.35,54.81,57.26Z"/><path class="cls-1" d="M51.63,28c-.88,1-1.35,2-2,2.08-1.42.2-1.52-1.09-1.33-2A7.53,7.53,0,0,1,49.53,26Z"/><path class="cls-1" d="M31.5,63.08a28.14,28.14,0,0,1-3.6,1.84c-.26.09-.84-.77-1.27-1.2a24.59,24.59,0,0,1,2.89-2C29.75,61.58,30.44,62.32,31.5,63.08Z"/><path class="cls-1" d="M41.92,57.83a22.11,22.11,0,0,1-3.09,1.52c-.26.08-.82-.75-1.25-1.16a16,16,0,0,1,2.62-2c.32-.17,1.08.53,1.64.83Z"/><path class="cls-1" d="M59,55.53l2.64,2.75c-.46.37-1,1.12-1.35,1-1.15-.28-2.66-.41-2.64-2.09C57.69,56.79,58.36,56.34,59,55.53Z"/><path class="cls-1" d="M67.86,60.69c-1,.79-1.65,1.55-1.87,1.44a22.71,22.71,0,0,1-3-1.91c.4-.44.94-1.33,1.18-1.25A27.27,27.27,0,0,1,67.86,60.69Z"/><path class="cls-1" d="M70,61.14l2.54,2.72c-.44.38-1.13,1.15-1.29,1.06A29.2,29.2,0,0,1,68.5,62.8Z"/></svg>