<svg id="Layer_1" data-name="Layer 1" xmlns="http://www.w3.org/2000/svg" viewBox="0 0 100 100"><defs><style>.cls-1{fill:#00a99d;}</style></defs><title>column-icon</title><path class="cls-1" d="M45.89,54.05c0-9.13,0-18.26,0-27.39a6.63,6.63,0,0,1,1.11-3.47c2.3-3.43,4.77-6.74,7.21-10.07,1.38-1.88,2.52-1.87,3.87,0,2.53,3.52,5.07,7,7.52,10.59a4.75,4.75,0,0,1,.81,2.55q.08,27.6,0,55.19c0,4.86-2.53,7.34-7.41,7.41-2,0-4,0-6,0-4.64-.09-7.15-2.57-7.18-7.23C45.85,72.45,45.89,63.25,45.89,54.05Zm5.33,18.49V40.76A4.36,4.36,0,0,1,51.31,39c.28-.58.9-1.38,1.37-1.38a2.49,2.49,0,0,1,1.78,1.14,4.51,4.51,0,0,1,.24,2.14q0,14.59,0,29.18v2.37h2.83v-45h-8V72.54ZM49.44,76.2c0,2.17-.13,4.22,0,6.25a2.92,2.92,0,0,0,3,2.9q3.78.11,7.57,0a2.73,2.73,0,0,0,2.79-2.61c.17-2.16,0-4.33,0-6.53ZM63,49.87c0-6.93,0-13.86,0-20.79,0-.59-.59-1.17-.91-1.75-.26.57-.74,1.15-.74,1.72q-.08,20.89,0,41.79c0,.58.59,1.16.91,1.74.26-.57.74-1.14.74-1.71C63,63.87,63,56.87,63,49.87ZM56.2,16.38,51,23.69H61.42Z"/><path class="cls-1" d="M22.84,44.42c4.45.72,8.2,2.76,10.55,6.54A16.62,16.62,0,0,1,36,58.14a148.27,148.27,0,0,1,.13,15.78A15,15,0,0,1,21.18,88.83,14.89,14.89,0,0,1,5.89,75,117.05,117.05,0,0,1,6.1,57c.53-6.07,5.62-11.07,11.56-12.25,1.07-.21,1.51-.51,1.69-1.69a5.75,5.75,0,0,1,5.55-4.84c1.73-.12,3.46-.23,5.2-.27,1.48,0,2.57-.71,2.6-2.18,0-1.66-1.24-2.22-2.73-2.22-3.53,0-7.08-.18-10.6,0a6,6,0,0,1-6.4-5.7c0-3.31,2.61-5.6,6.43-5.62,2.93,0,5.87,0,8.8,0s4.32-1.31,4.33-3.58-1.5-3.5-4.37-3.53c-3.33,0-6.67,0-10,0-1.25,0-2.58-.05-2.57-1.74s1.35-1.73,2.59-1.73c3.47,0,6.94-.05,10.4,0,4.51.08,7.46,2.81,7.51,6.86s-2.91,7.1-7.4,7.25c-3.19.1-6.4.05-9.59,0-1.53,0-2.51.6-2.53,2.15S17.6,30,19,30q5.61,0,11.2,0a5.58,5.58,0,0,1,5.41,3.09A5.38,5.38,0,0,1,35.19,39a5.85,5.85,0,0,1-4.8,2.44c-1.73.1-3.47.1-5.19.26A2.3,2.3,0,0,0,22.84,44.42Zm9.84,21.52H9.33c0,3.24-.18,6.37.05,9.46.32,4.27,4.13,8.35,8.55,9.56a11.88,11.88,0,0,0,11.91-3.69C33.77,76.67,32.43,71.26,32.68,65.94ZM19.12,48.2A11.46,11.46,0,0,0,9.55,62.15h9.57ZM22.8,62.11h9.75c.73-7.56-4-14.2-9.75-13.67Z"/><path class="cls-1" d="M77.29,37.29c-3.76-5.1-4.09-9.91-.12-15.9a75,75,0,0,1,6.83-8,3.62,3.62,0,0,1,1.8-1.18c1-.2,2.3-.42,2.93.08a3.41,3.41,0,0,1,.63,2.79c-.42,2.18-.41,4.18,1.45,5.65C96,24.78,97.2,31.79,91.88,38.08a9.11,9.11,0,0,1,.41,9.26,4.61,4.61,0,0,0-.18,1.95c0,10.33,0,20.65,0,31a7.6,7.6,0,0,1-9.7,7.63C79.07,87,77,83.91,77,79.73c0-9.93,0-19.85,0-29.77,0-1.72-.46-3.43-.41-5.14C76.61,42.56,77,40.31,77.29,37.29ZM80.52,51.1c0,9.68-.06,19.66,0,29.65a4,4,0,0,0,5.73,3.54c1.75-.81,2.29-2.27,2.28-4.07q0-14.09,0-28.17a5.27,5.27,0,0,0-.15-.95Zm5.09-34.56c-3.58,3.38-6.07,6.77-7.35,10.92a7.78,7.78,0,0,0,1.16,6.83c.62.94,1.26,1.08,2.47.87a16.69,16.69,0,0,1,6,0,2,2,0,0,0,2.46-.84,7.72,7.72,0,0,0-1-10.13C87.29,22.21,85.45,20.18,85.61,16.54Zm-.79,31.39a4.67,4.67,0,0,0,5-4.76A5.1,5.1,0,0,0,84.89,38a5.25,5.25,0,0,0-5.07,5.13A4.89,4.89,0,0,0,84.82,47.93Z"/><path class="cls-1" d="M13,13.29c-1.11.88-1.78,1.8-2.28,1.72a2.59,2.59,0,0,1-1.75-1.58c-.11-.42.87-1.58,1.43-1.62S11.74,12.55,13,13.29Z"/><path class="cls-1" d="M55.41,32.1c-1.2.84-1.88,1.67-2.54,1.65s-1.6-1.07-1.52-1.52A2.47,2.47,0,0,1,53,30.6C53.49,30.49,54.21,31.32,55.41,32.1Z"/></svg>