<svg id="Layer_1" data-name="Layer 1" xmlns="http://www.w3.org/2000/svg" viewBox="0 0 100 100"><defs><style>.cls-1{fill:#00a99d;}</style></defs><title>column-icon</title><path class="cls-1" d="M11.29,75.29c26.11-6,51.78-5.61,77.81,0-1.41-1.58-2.62-3-3.85-4.29L63.92,47.66c-2.08-2.27-3.31-2.27-5.43,0C57,49.28,55.58,51,54,52.49c-.47.44-1.42.38-2.16.55.11-.75,0-1.71.35-2.23,1.44-1.83,3.06-3.52,4.62-5.25,2.7-3,5.85-3.09,8.62-.14C69,49.2,72.46,53.07,76,56.91q7.37,8,14.7,16.1c.44.47.8,1,1.2,1.53l.58-.23v-8a6.81,6.81,0,0,1,.12-2.18c.18-.5.86-1.15,1.28-1.13A1.72,1.72,0,0,1,95,64.17c.09,4.67.09,9.33,0,14,0,1.3-.84,1.69-2.08,1.29-2-.63-3.92-1.32-5.92-1.77a2.5,2.5,0,0,0-2.09.67C75.32,89.87,62.83,95.3,48,94.72c-12.88-.51-23.55-6.16-31.9-16a2.44,2.44,0,0,0-3.18-.91c-1.62.6-3.3,1-5,1.52-1.82.56-2.45.14-2.45-1.81q0-19.8,0-39.59c0-1,0-2.3,1.37-2.1.53.07,1.23,1.45,1.23,2.24.08,11.33.06,22.67.06,34v2.72c1.67-1.89,2.94-3.3,4.19-4.72q8.46-9.6,16.92-19.2c2.9-3.28,5.81-3.24,8.76.06L45,58.63a29.21,29.21,0,0,1,2.8-2.93,6.11,6.11,0,0,1,2.17-.64c-.07.76.09,1.68-.27,2.24a32.86,32.86,0,0,1-2.86,3.38c1.37,1.53,2.65,3,3.93,4.41.69.77,1.84,1.58.61,2.64s-1.91-.26-2.57-1c-4.21-4.63-8.4-9.3-12.58-14-2.06-2.3-3.11-2.34-5.15,0q-9.27,10.48-18.5,21C12.2,74.17,11.88,74.58,11.29,75.29Zm19.5-.48C33.22,80.42,36.18,85.38,41.07,89c3.86,2.82,8.15,4,12.81,2.68,8.48-2.48,12.45-9.29,15.92-16.71C63.89,73.32,39,73.26,30.79,74.81Zm52.09,1.78c-3.15-.49-6-.85-8.73-1.39-1.23-.24-1.68.17-2.24,1.23-1.61,3-3.3,6-5.18,8.93a51.69,51.69,0,0,1-4.38,5A42,42,0,0,0,82.88,76.59Zm-64.95-.06c3.43,5.56,15.15,13.36,19.67,13.34-1.69-2.09-3.61-4.14-5.14-6.45s-2.64-4.92-4-7.33a2,2,0,0,0-1.6-.85C23.92,75.57,21,76.06,17.93,76.53Z"/><path class="cls-1" d="M8.1,24.11c0,2.33.11,4.52-.06,6.7,0,.72-.8,1.39-1.24,2.09-.43-.69-1.21-1.37-1.25-2.08-.15-2.72-.08-5.46,0-8.19,0-1.85.61-2.27,2.35-1.76,2.17.64,4.52,2.14,6.45,1.71s3.23-2.81,4.82-4.34C29.06,8.63,41,4.49,54.68,5.72A42.13,42.13,0,0,1,83.59,20.61c1.57,1.81,2.87,2.65,5.15,1.56a25.72,25.72,0,0,1,4-1.3c1.76-.51,2.36-.08,2.37,1.75,0,3.86,0,7.73,0,11.59v23.2A3.75,3.75,0,0,1,95,59c-.22.45-.78,1-1.19,1a1.73,1.73,0,0,1-1.19-1,5.63,5.63,0,0,1-.13-2q0-15.39,0-30.79V24.1A175.35,175.35,0,0,1,8.1,24.11Zm61.75,1.47c-2.33-5.48-5.21-10.32-9.9-13.9S50,6.91,44.41,9.43c-7,3.16-10.65,9.27-13.69,16.13A191.66,191.66,0,0,0,69.85,25.58Zm13-2C77.25,17,70.74,12.46,62.73,10.18A44,44,0,0,1,72.06,24a2.12,2.12,0,0,0,1.68,1.05C76.69,24.69,79.62,24.14,82.88,23.59Zm-65.12.05c3.14.49,6,.86,8.77,1.43,1.16.23,1.59-.14,2.12-1.09,1.87-3.36,3.78-6.69,5.85-9.92a36.72,36.72,0,0,1,3.72-4.15A41.25,41.25,0,0,0,17.76,23.64Z"/><path class="cls-1" d="M51.62,40a6,6,0,0,1-5.83,6.1,6.19,6.19,0,0,1-6.22-6,6.07,6.07,0,0,1,6.12-6A5.83,5.83,0,0,1,51.62,40Zm-2.58.1a3.54,3.54,0,0,0-3.41-3.49,3.44,3.44,0,0,0-3.37,3.25,3.28,3.28,0,0,0,3.2,3.56A3.58,3.58,0,0,0,49,40.06Z"/></svg>