<svg id="Layer_1" data-name="Layer 1" xmlns="http://www.w3.org/2000/svg" viewBox="0 0 100 100"><defs><style>.cls-1{fill:#00a99d;}</style></defs><title>column-icon</title><path class="cls-1" d="M81.13,34.47c.69-1.21,1.35-2.44,2.08-3.63,2-3.35,5.63-4.42,8.74-2.62a6.22,6.22,0,0,1,2.12,8.7C90,44.17,85.75,51.34,81.67,58.6a8.42,8.42,0,0,0-1,3.74c-.12,4.06,0,8.13,0,12.19s-1.9,6.13-5.73,5.73c-5.49-.56-10,.76-13.78,4.86a2.74,2.74,0,0,1-2.43.5c-.46-.18-.78-1.48-.68-2.22.55-3.89.89-7.86,2-11.59.87-2.86,2.74-5.44,4.33-8a2.11,2.11,0,0,1,2-.22,2.18,2.18,0,0,1,.45,2C66,67.4,65,69.09,63.89,71L69,73.87c6.66-11.51,13.27-23,20-34.57l-5-3L77.15,47.93C76.08,49.77,75,51.62,74,53.47c-.57,1-1.25,1.9-2.52,1.2s-1-1.75-.39-2.76c1.56-2.72,3-5.52,4.75-8.1s1.68-5.08,1.33-8H14.34v38c0,2.92.28,3.19,3.22,3.19H45a4.18,4.18,0,0,1,2,.16A2.39,2.39,0,0,1,48,78.83c0,.45-.66,1.08-1.17,1.37a3.37,3.37,0,0,1-1.57.13q-14.31,0-28.6,0c-3.8,0-5.63-1.86-5.63-5.66q0-24.21,0-48.4c0-3.79,1.84-5.62,5.66-5.62h58.2c3.86,0,5.69,1.88,5.71,5.82,0,2.63,0,5.27,0,7.9ZM77.3,32.3V26.91c0-2.69-.3-3-3-3h-36q-10.68,0-21.37,0c-1.28,0-2.55.09-2.63,1.72-.1,2.18,0,4.36,0,6.68ZM71,77.05A32.08,32.08,0,0,0,75.54,77c.62-.09,1.58-.85,1.61-1.35.16-2.86.08-5.75.08-8.62l-.41-.09ZM90.41,36.27l.81-.18c0-1.29.45-2.71,0-3.8a3.09,3.09,0,0,0-2.64-1.47c-1.15.23-2.13,1.34-3.55,2.33Zm-27.53,38-1,6,4.77-3.94Z"/><path class="cls-1" d="M59.29,55.91c-1.68-1.59-2.94-2.78-4.18-4-.85-.82-1.37-1.78-.39-2.77s1.94-.4,2.75.42c1.5,1.51,3,3,4.52,4.52,1.2,1.16,1.26,2.21,0,3.39-1.59,1.52-3.13,3.08-4.68,4.64-.77.78-1.63,1.32-2.58.39s-.56-2,.31-2.76C56.38,58.55,57.71,57.35,59.29,55.91Z"/><path class="cls-1" d="M42.33,64c-1.57,0-2.45-1.18-1.79-2.34,2.55-4.5,5.17-9,7.9-13.35a2.26,2.26,0,0,1,2.15-.47c1.14.54.89,1.61.32,2.57C48.45,54.62,46,58.8,43.52,63A4.67,4.67,0,0,1,42.33,64Z"/><path class="cls-1" d="M32.45,56c1.52,1.38,2.86,2.57,4.17,3.8.88.82,1.31,1.79.29,2.75s-1.81.37-2.59-.41c-1.55-1.56-3.1-3.13-4.68-4.65-1.13-1.09-1.22-2.13-.06-3.26,1.62-1.58,3.21-3.2,4.82-4.79.8-.8,1.88-1.24,2.54-.18a2.81,2.81,0,0,1-.34,2.53A48.85,48.85,0,0,1,32.45,56Z"/><path class="cls-1" d="M69,56.64c.71,1.19,1.49,1.92,1.37,2.45a2.31,2.31,0,0,1-1.69,1.37c-.42,0-1.33-1-1.32-1.52S68.19,57.75,69,56.64Z"/><path class="cls-1" d="M55.42,78.75c-1.16.73-1.86,1.53-2.41,1.43a2.27,2.27,0,0,1-1.41-1.63c-.06-.4.93-1.35,1.46-1.35S54.29,78,55.42,78.75Z"/><path class="cls-1" d="M58.9,29.83H47.53c-1.21,0-2.42-.1-2.42-1.67s1.28-1.61,2.45-1.61H70.09c1.13,0,2.3.08,2.33,1.53s-1.11,1.75-2.35,1.74Z"/><path class="cls-1" d="M33.68,28c-1.1.86-1.72,1.73-2.3,1.69a2.29,2.29,0,0,1-1.55-1.52c-.1-.37.82-1.4,1.35-1.45S32.49,27.34,33.68,28Z"/><path class="cls-1" d="M27.62,28.24c-1.17.74-1.88,1.54-2.41,1.44A2.35,2.35,0,0,1,23.81,28c-.06-.39.94-1.32,1.47-1.32S26.49,27.45,27.62,28.24Z"/><path class="cls-1" d="M21.59,28.08c-1.12.82-1.77,1.66-2.32,1.59a2.34,2.34,0,0,1-1.51-1.56c-.09-.37.86-1.38,1.38-1.41S20.41,27.37,21.59,28.08Z"/></svg>