<svg id="Layer_1" data-name="Layer 1" xmlns="http://www.w3.org/2000/svg" viewBox="0 0 360 640"><defs><style>.cls-1{fill:none;stroke:#fff;stroke-miterlimit:10;stroke-width:2px;}</style></defs><title>Hero</title><ellipse class="cls-1" cx="157.04" cy="251.71" rx="48.26" ry="18.04" transform="translate(-134.47 306.89) rotate(-68.76)"/><ellipse class="cls-1" cx="143.61" cy="339.32" rx="12.18" ry="42.4" transform="translate(-31.64 15.21) rotate(-5.46)"/><path class="cls-1" d="M140.22,397.26c-2-1.75,1.91-3.29,3.85-8.11s-1.91-9.94,3.17-9.34c2.66.31,3,5.75,1.07,10.57S143.28,399.94,140.22,397.26Z"/><path class="cls-1" d="M148.37,409.7c-4.23.05-.41-6-.5-14.26s-4.06-15.46.18-15.5,7.74,6.58,7.83,14.8S152.61,409.66,148.37,409.7Z"/><path class="cls-1" d="M280.27,632.69c0-.14,0-.29.05-.44.68-9.2-13.08-17.7-30.71-19s-32.49,5.11-33.16,14.3c0,.15,0,.3,0,.45Z"/><ellipse class="cls-1" cx="221.39" cy="555.85" rx="18.41" ry="59.77" transform="matrix(1, -0.09, 0.09, 1, -49.99, 22.62)"/><ellipse class="cls-1" cx="201.96" cy="430" rx="24.81" ry="67.65" transform="translate(-92.24 56.99) rotate(-13.1)"/><ellipse class="cls-1" cx="175.49" cy="282.67" rx="33.83" ry="83.66"/><ellipse class="cls-1" cx="178.64" cy="164.73" rx="28.86" ry="34.73"/><path class="cls-1" d="M135.73,639.13c.06-.14.13-.27.18-.41,3.42-8.56-7.13-20.81-23.55-27.37S79.84,606.42,76.43,615c-.06.14-.1.29-.15.43Z"/><ellipse class="cls-1" cx="117.69" cy="553.64" rx="59.77" ry="18.41" transform="translate(-426.53 398.1) rotate(-62.05)"/><ellipse class="cls-1" cx="158.64" cy="433.35" rx="67.65" ry="24.81" transform="translate(-293.87 523.85) rotate(-81.2)"/><ellipse class="cls-1" cx="180.06" cy="254.47" rx="18.04" ry="48.26" transform="translate(-45.39 39.19) rotate(-11.04)"/><ellipse class="cls-1" cx="215.49" cy="335.72" rx="12.18" ry="42.4" transform="translate(-160.41 202.14) rotate(-37.74)"/><path class="cls-1" d="M243.57,386.51c-2.63-.41-.14-3.8-1.07-8.91s-6.93-7.38-2.31-9.59c2.41-1.16,5.61,3.25,6.54,8.36S247.58,387.14,243.57,386.51Z"/><path class="cls-1" d="M257.11,392.68c-3.56,2.3-3.58-4.89-8.05-11.79s-11.68-10.9-8.12-13.21S251,369.11,255.46,376,260.66,390.37,257.11,392.68Z"/></svg>