<svg id="Layer_1" data-name="Layer 1" xmlns="http://www.w3.org/2000/svg" viewBox="0 0 360 640"><defs><style>.cls-1{fill:none;stroke:#fff;stroke-miterlimit:10;stroke-width:2px;}</style></defs><title>Hero</title><ellipse class="cls-1" cx="235.69" cy="266.63" rx="42.4" ry="12.18" transform="translate(-120.11 273.82) rotate(-49.68)"/><ellipse class="cls-1" cx="194.39" cy="255.57" rx="18.04" ry="48.26" transform="translate(-89.45 105.44) rotate(-24.87)"/><path class="cls-1" d="M274.71,221.29c1.57,2.14-2.58,2.79-5.52,7.08s-.28,10.11-5.11,8.43c-2.53-.88-1.69-6.26,1.24-10.54S272.3,218,274.71,221.29Z"/><ellipse class="cls-1" cx="277.45" cy="232.13" rx="14.88" ry="7.67" transform="translate(-47.24 72.62) rotate(-13.75)"/><rect class="cls-1" x="231.49" y="228.03" width="64.04" height="2.57" transform="translate(84.3 -70.53) rotate(18.1)"/><ellipse class="cls-1" cx="171.79" cy="257.83" rx="48.26" ry="18.04" transform="translate(-106.9 393.19) rotate(-82.23)"/><ellipse class="cls-1" cx="201.86" cy="328.36" rx="12.18" ry="42.4" transform="translate(-182.98 349.93) rotate(-61.63)"/><path class="cls-1" d="M248.1,363.44c-2.56.68-1.66-3.42-4.58-7.71s-9.33-4-6-7.84c1.74-2,6.45.7,9.37,5S252,362.39,248.1,363.44Z"/><path class="cls-1" d="M263,363.59c-2.32,3.55-5.25-3-12.13-7.52s-15.09-5.24-12.78-8.78,9.78-2.76,16.66,1.74S265.3,360.05,263,363.59Z"/><path class="cls-1" d="M221.78,639c0-.15,0-.3,0-.45,0-9.22-14.34-16.69-32-16.69s-32,7.47-32,16.69c0,.15,0,.3,0,.45Z"/><ellipse class="cls-1" cx="173.35" cy="566.28" rx="59.77" ry="18.41" transform="translate(-408.34 677.46) rotate(-83.8)"/><ellipse class="cls-1" cx="178.51" cy="439.2" rx="24.81" ry="67.65"/><ellipse class="cls-1" cx="179.41" cy="288.79" rx="33.83" ry="83.66"/><ellipse class="cls-1" cx="182.57" cy="170.85" rx="28.86" ry="34.73"/></svg>