<svg id="Layer_1" data-name="Layer 1" xmlns="http://www.w3.org/2000/svg" viewBox="0 0 360 640"><defs><style>.cls-1{fill:none;stroke:#fff;stroke-miterlimit:10;stroke-width:2px;}</style></defs><title>Hero</title><ellipse class="cls-1" cx="169.7" cy="257.83" rx="48.26" ry="18.04" transform="translate(-108.7 391.12) rotate(-82.23)"/><ellipse class="cls-1" cx="166.63" cy="347.89" rx="12.18" ry="42.4" transform="translate(-21.51 11.15) rotate(-3.6)"/><path class="cls-1" d="M161.36,405.69c-1.94-1.81,2-3.22,4.12-8s-1.59-10,3.47-9.24c2.65.4,2.82,5.84.72,10.6S164.33,408.47,161.36,405.69Z"/><path class="cls-1" d="M169.11,418.39c-4.24-.09-.22-6.05-.05-14.27s-3.54-15.58.69-15.49,7.52,6.83,7.34,15.05S173.34,418.49,169.11,418.39Z"/><path class="cls-1" d="M219.7,639c0-.15,0-.3,0-.45,0-9.22-14.34-16.69-32-16.69s-32,7.47-32,16.69c0,.15,0,.3,0,.45Z"/><ellipse class="cls-1" cx="171.27" cy="566.28" rx="59.77" ry="18.41" transform="translate(-410.2 675.39) rotate(-83.8)"/><ellipse class="cls-1" cx="176.42" cy="439.2" rx="24.81" ry="67.65"/><ellipse class="cls-1" cx="177.33" cy="288.79" rx="33.83" ry="83.66"/><ellipse class="cls-1" cx="180.48" cy="170.85" rx="28.86" ry="34.73"/></svg>