<svg id="Layer_1" data-name="Layer 1" xmlns="http://www.w3.org/2000/svg" viewBox="0 0 360 640"><defs><style>.cls-1{fill:none;stroke:#fff;stroke-miterlimit:10;stroke-width:2px;}</style></defs><title>Hero</title><ellipse class="cls-1" cx="158.59" cy="254.71" rx="48.26" ry="18.04" transform="translate(-136.28 310.25) rotate(-68.76)"/><ellipse class="cls-1" cx="145.15" cy="342.32" rx="12.18" ry="42.4" transform="translate(-31.92 15.37) rotate(-5.46)"/><path class="cls-1" d="M141.76,400.26c-2-1.75,1.92-3.29,3.86-8.11s-1.91-9.94,3.17-9.34c2.66.31,3,5.75,1.06,10.57S144.82,402.94,141.76,400.26Z"/><path class="cls-1" d="M149.92,412.7c-4.23.05-.42-6-.51-14.26s-4-15.46.18-15.5,7.74,6.58,7.83,14.8S154.15,412.66,149.92,412.7Z"/><path class="cls-1" d="M291.51,622.65c0-.15,0-.3,0-.45-1.25-9.13-16.46-14.59-34-12.2S226.77,621.74,228,630.87c0,.15,0,.3.08.45Z"/><ellipse class="cls-1" cx="230.15" cy="556.14" rx="18.41" ry="59.77" transform="matrix(1, -0.09, 0.09, 1, -49.98, 23.42)"/><ellipse class="cls-1" cx="203.51" cy="433" rx="24.81" ry="67.65" transform="translate(-145.79 106.05) rotate(-21.72)"/><ellipse class="cls-1" cx="177.03" cy="285.67" rx="33.83" ry="83.66"/><ellipse class="cls-1" cx="180.19" cy="167.73" rx="28.86" ry="34.73"/><path class="cls-1" d="M123.93,640.2c.09-.12.17-.24.25-.37,4.66-8-3.94-21.65-19.21-30.58s-31.41-9.73-36.06-1.77c-.08.13-.14.26-.21.4Z"/><ellipse class="cls-1" cx="118.86" cy="552.98" rx="59.77" ry="18.41" transform="matrix(0.6, -0.8, 0.8, 0.6, -396.2, 319.25)"/><ellipse class="cls-1" cx="160.19" cy="436.35" rx="67.65" ry="24.81" transform="translate(-295.53 527.92) rotate(-81.2)"/><ellipse class="cls-1" cx="181.6" cy="257.47" rx="18.04" ry="48.26" transform="translate(-45.94 39.54) rotate(-11.04)"/><ellipse class="cls-1" cx="217.03" cy="338.72" rx="12.18" ry="42.4" transform="translate(-161.92 203.71) rotate(-37.74)"/><path class="cls-1" d="M245.11,389.51c-2.62-.41-.13-3.8-1.07-8.91s-6.92-7.38-2.31-9.59c2.42-1.16,5.62,3.25,6.55,8.36S249.13,390.14,245.11,389.51Z"/><path class="cls-1" d="M258.65,395.68c-3.55,2.3-3.58-4.89-8-11.79s-11.68-10.9-8.13-13.21S252.54,372.11,257,379,262.21,393.37,258.65,395.68Z"/></svg>