<svg id="Layer_1" data-name="Layer 1" xmlns="http://www.w3.org/2000/svg" viewBox="0 0 360 640"><defs><style>.cls-1{fill:none;stroke:#fff;stroke-miterlimit:10;stroke-width:2px;}</style></defs><title>Hero</title><ellipse class="cls-1" cx="155.37" cy="254.71" rx="48.26" ry="18.04" transform="translate(-138.32 307.25) rotate(-68.76)"/><ellipse class="cls-1" cx="141.94" cy="342.32" rx="12.18" ry="42.4" transform="matrix(1, -0.1, 0.1, 1, -31.94, 15.06)"/><path class="cls-1" d="M138.55,400.26c-2-1.75,1.92-3.29,3.86-8.11s-1.91-9.94,3.17-9.34c2.66.31,3,5.75,1.06,10.57S141.61,402.94,138.55,400.26Z"/><path class="cls-1" d="M146.71,412.7c-4.24.05-.42-6-.51-14.26s-4-15.46.18-15.5,7.74,6.58,7.83,14.8S150.94,412.66,146.71,412.7Z"/><path class="cls-1" d="M245.23,639.3c0-.15,0-.29.05-.45.68-9.19-13.08-17.69-30.71-19s-32.49,5.11-33.16,14.3c0,.15,0,.3,0,.45Z"/><ellipse class="cls-1" cx="186.35" cy="562.46" rx="18.41" ry="59.77" transform="translate(-50.75 19.44) rotate(-5.26)"/><ellipse class="cls-1" cx="173.23" cy="436.61" rx="24.81" ry="67.65" transform="translate(-39.27 17.71) rotate(-5.26)"/><ellipse class="cls-1" cx="173.82" cy="285.67" rx="33.83" ry="83.66"/><ellipse class="cls-1" cx="176.98" cy="167.73" rx="28.86" ry="34.73"/><path class="cls-1" d="M157.6,628.5c.11-.1.22-.2.33-.32,6.26-6.76.82-22-12.16-34s-28.57-16.27-34.84-9.51c-.1.11-.19.23-.29.35Z"/><ellipse class="cls-1" cx="171.47" cy="542.24" rx="59.77" ry="18.41" transform="translate(-313.69 245.52) rotate(-41)"/><ellipse class="cls-1" cx="191.67" cy="434.69" rx="24.81" ry="67.65" transform="translate(-118.71 75.03) rotate(-17)"/><ellipse class="cls-1" cx="178.39" cy="257.47" rx="18.04" ry="48.26" transform="translate(-46 38.92) rotate(-11.04)"/><ellipse class="cls-1" cx="213.82" cy="338.72" rx="12.18" ry="42.4" transform="translate(-162.59 201.75) rotate(-37.74)"/><path class="cls-1" d="M241.9,389.51c-2.62-.41-.14-3.8-1.07-8.91s-6.92-7.38-2.31-9.59c2.42-1.16,5.61,3.25,6.55,8.36S245.92,390.14,241.9,389.51Z"/><path class="cls-1" d="M255.44,395.68c-3.55,2.3-3.58-4.89-8-11.79s-11.68-10.9-8.13-13.21,10.06,1.43,14.52,8.33S259,393.37,255.44,395.68Z"/></svg>