<svg id="Layer_1" data-name="Layer 1" xmlns="http://www.w3.org/2000/svg" xmlns:xlink="http://www.w3.org/1999/xlink" viewBox="0 0 1920 1080"><defs><style>.cls-1{fill:url(#linear-gradient);}.cls-2{fill:none;stroke:#fff;stroke-miterlimit:10;stroke-width:4px;}</style><linearGradient id="linear-gradient" x1="210" y1="1290" x2="1710" y2="-210" gradientUnits="userSpaceOnUse"><stop offset="0" stop-color="#001a2a"/><stop offset="1" stop-color="#29abe2" stop-opacity="0.9"/></linearGradient></defs><title>rr</title><rect class="cls-1" width="1920" height="1080"/><ellipse class="cls-2" cx="449.15" cy="607.18" rx="49.88" ry="33.25" transform="translate(-276.39 816.95) rotate(-69.63)"/><path class="cls-2" d="M430.9,653.41s-128.14,174.37-82.72,193,96.51,0,96.51,0L390.35,964.85s35.43,30.26,47.85,13"/><polyline class="cls-2" points="0 983.5 314.12 983.5 265.45 698.83 281.67 698.83 310.06 857.79 420.36 857.79 378.59 983.5 489.44 983.5 489.44 779.93 638.12 779.93 638.12 770.2 716.38 770.2 744.77 698.83 752.88 702.07 722.87 779.12 1921 779.12"/><path class="cls-2" d="M409.93,683.4l40.44,90.85,21.08-86.78L452,658.28s-12.17-13-3.24,18.65"/><path class="cls-2" d="M556.61,743.44s-11.35-6.49-17,2.43-4.05,6.49-4.05,6.49L465,758.84l-55.15-75.42"/><line class="cls-2" x1="519.31" y1="710.99" x2="554.18" y2="751.55"/></svg>